<svg width="32" height="32" viewBox="0 0 32 32" fill="none" xmlns="http://www.w3.org/2000/svg">
<g clip-path="url(#clip0_34_692)">
<path d="M32 16C32 7.16344 24.8366 0 16 0C7.16344 0 0 7.16344 0 16C0 24.8366 7.16344 32 16 32C24.8366 32 32 24.8366 32 16Z" fill="url(#paint0_linear_34_692)"/>
<g filter="url(#filter0_dd_34_692)">
<path d="M8.19597 17.8437C8.16038 17.6919 8.34116 17.5963 8.45141 17.7065L14.2934 23.5485C14.4036 23.6588 14.308 23.8395 14.1563 23.8039C11.2082 23.1123 8.88757 20.7918 8.19597 17.8437Z" fill="url(#paint1_linear_34_692)"/>
<path d="M8.00031 15.5023C7.99746 15.5476 8.01453 15.5918 8.04662 15.6239L16.3761 23.9534C16.4081 23.9855 16.4524 24.0025 16.4977 23.9997C16.8768 23.9761 17.2487 23.9261 17.6117 23.8516C17.734 23.8264 17.7765 23.6762 17.6882 23.5878L8.41215 14.3118C8.32384 14.2235 8.17356 14.266 8.14843 14.3883C8.0739 14.7513 8.0239 15.1232 8.00031 15.5023Z" fill="url(#paint2_linear_34_692)"/>
<path d="M8.67367 12.7529C8.64705 12.8127 8.66061 12.8826 8.70689 12.9288L19.0711 23.293C19.1174 23.3393 19.1872 23.3529 19.247 23.3263C19.5328 23.199 19.8098 23.0554 20.0767 22.8968C20.1651 22.8443 20.1787 22.7229 20.106 22.6503L9.34964 11.8939C9.27698 11.8212 9.15561 11.8348 9.10311 11.9232C8.94448 12.1901 8.80095 12.4671 8.67367 12.7529Z" fill="url(#paint3_linear_34_692)"/>
<path d="M10.0253 10.8918C9.96607 10.8326 9.96239 10.7376 10.0182 10.6752C11.4846 9.0335 13.6177 8 15.9922 8C20.4147 8 23.9999 11.5852 23.9999 16.0077C23.9999 18.3822 22.9664 20.5153 21.3247 21.9817C21.2623 22.0375 21.1673 22.0338 21.108 21.9746L10.0253 10.8918Z" fill="url(#paint4_linear_34_692)"/>
</g>
</g>
<defs>
<filter id="filter0_dd_34_692" x="-63.2871" y="-52.1485" width="158.574" height="158.574" filterUnits="userSpaceOnUse" color-interpolation-filters="sRGB">
<feFlood flood-opacity="0" result="BackgroundImageFix"/>
<feColorMatrix in="SourceAlpha" type="matrix" values="0 0 0 0 0 0 0 0 0 0 0 0 0 0 0 0 0 0 127 0" result="hardAlpha"/>
<feOffset dy="11.1386"/>
<feGaussianBlur stdDeviation="35.6436"/>
<feColorMatrix type="matrix" values="0 0 0 0 0.118924 0 0 0 0 0.158031 0 0 0 0 0.570833 0 0 0 0.7 0"/>
<feBlend mode="normal" in2="BackgroundImageFix" result="effect1_dropShadow_34_692"/>
<feColorMatrix in="SourceAlpha" type="matrix" values="0 0 0 0 0 0 0 0 0 0 0 0 0 0 0 0 0 0 127 0" result="hardAlpha"/>
<feOffset dy="3.89851"/>
<feGaussianBlur stdDeviation="15"/>
<feColorMatrix type="matrix" values="0 0 0 0 0 0 0 0 0 0 0 0 0 0 0 0 0 0 0.17 0"/>
<feBlend mode="normal" in2="effect1_dropShadow_34_692" result="effect2_dropShadow_34_692"/>
<feBlend mode="normal" in="SourceGraphic" in2="effect2_dropShadow_34_692" result="shape"/>
</filter>
<linearGradient id="paint0_linear_34_692" x1="16" y1="0" x2="16" y2="32" gradientUnits="userSpaceOnUse">
<stop stop-color="#5C6BF1"/>
<stop offset="1" stop-color="#283188"/>
</linearGradient>
<linearGradient id="paint1_linear_34_692" x1="8.57135" y1="9.48572" x2="16.9142" y2="21.7143" gradientUnits="userSpaceOnUse">
<stop stop-color="white"/>
<stop offset="1" stop-color="white" stop-opacity="0.65"/>
</linearGradient>
<linearGradient id="paint2_linear_34_692" x1="8.57143" y1="9.48572" x2="16.9143" y2="21.7143" gradientUnits="userSpaceOnUse">
<stop stop-color="white"/>
<stop offset="1" stop-color="white" stop-opacity="0.65"/>
</linearGradient>
<linearGradient id="paint3_linear_34_692" x1="8.57136" y1="9.48572" x2="16.9142" y2="21.7143" gradientUnits="userSpaceOnUse">
<stop stop-color="white"/>
<stop offset="1" stop-color="white" stop-opacity="0.65"/>
</linearGradient>
<linearGradient id="paint4_linear_34_692" x1="8.57133" y1="9.48572" x2="16.9142" y2="21.7143" gradientUnits="userSpaceOnUse">
<stop stop-color="white"/>
<stop offset="1" stop-color="white" stop-opacity="0.65"/>
</linearGradient>
<clipPath id="clip0_34_692">
<rect width="32" height="32" fill="white"/>
</clipPath>
</defs>
</svg>
