<svg width="438" height="142" viewBox="0 0 438 142" fill="none" xmlns="http://www.w3.org/2000/svg">
<rect width="438" height="142" rx="20" fill="white"/>
<path d="M27.2912 90V76.9091H29.6626V88.0121H35.4283V90H27.2912ZM37.3842 90V80.1818H39.6982V90H37.3842ZM38.5476 78.7884C38.1811 78.7884 37.8658 78.6669 37.6016 78.424C37.3374 78.1768 37.2053 77.8807 37.2053 77.5355C37.2053 77.1861 37.3374 76.8899 37.6016 76.647C37.8658 76.3999 38.1811 76.2763 38.5476 76.2763C38.9183 76.2763 39.2337 76.3999 39.4936 76.647C39.7578 76.8899 39.8899 77.1861 39.8899 77.5355C39.8899 77.8807 39.7578 78.1768 39.4936 78.424C39.2337 78.6669 38.9183 78.7884 38.5476 78.7884ZM44.3915 84.2472V90H42.0776V80.1818H44.2892V81.8501H44.4043C44.6301 81.3004 44.9902 80.8636 45.4846 80.5398C45.9831 80.2159 46.5989 80.054 47.3319 80.054C48.0094 80.054 48.5996 80.1989 49.1025 80.4886C49.6096 80.7784 50.0016 81.1982 50.2786 81.7479C50.5598 82.2976 50.6983 82.9645 50.6941 83.7486V90H48.3801V84.1065C48.3801 83.4503 48.2097 82.9368 47.8688 82.5661C47.5321 82.1953 47.0655 82.0099 46.4689 82.0099C46.0641 82.0099 45.704 82.0994 45.3887 82.2784C45.0776 82.4531 44.8326 82.7067 44.6536 83.0391C44.4789 83.3714 44.3915 83.7741 44.3915 84.2472ZM57.3929 90.1918C56.4086 90.1918 55.5584 89.9872 54.8425 89.5781C54.1309 89.1648 53.5833 88.581 53.1998 87.8267C52.8162 87.0682 52.6245 86.1754 52.6245 85.1484C52.6245 84.1385 52.8162 83.2521 53.1998 82.4893C53.5875 81.7223 54.1287 81.1257 54.8233 80.6996C55.5179 80.2692 56.334 80.054 57.2715 80.054C57.8766 80.054 58.4476 80.152 58.9846 80.348C59.5257 80.5398 60.003 80.8381 60.4164 81.2429C60.834 81.6477 61.1621 82.1634 61.4007 82.7898C61.6394 83.4119 61.7587 84.1534 61.7587 85.0142V85.7237H53.7111V84.1641H59.5407C59.5364 83.7209 59.4405 83.3267 59.253 82.9815C59.0655 82.6321 58.8034 82.3572 58.4668 82.157C58.1344 81.9567 57.7466 81.8565 57.3034 81.8565C56.8304 81.8565 56.415 81.9716 56.057 82.2017C55.699 82.4276 55.4199 82.7259 55.2196 83.0966C55.0236 83.4631 54.9235 83.8658 54.9192 84.3047V85.6662C54.9192 86.2372 55.0236 86.7273 55.2324 87.1364C55.4412 87.5412 55.7331 87.8523 56.1081 88.0696C56.4831 88.2827 56.9221 88.3892 57.4249 88.3892C57.7615 88.3892 58.0662 88.3423 58.339 88.2486C58.6117 88.1506 58.8482 88.0078 59.0485 87.8203C59.2488 87.6328 59.4 87.4006 59.5023 87.1236L61.6628 87.3665C61.5265 87.9375 61.2665 88.4361 60.883 88.8622C60.5037 89.2841 60.0179 89.6122 59.4256 89.8466C58.8333 90.0767 58.1557 90.1918 57.3929 90.1918ZM66.5415 90.1982C65.9194 90.1982 65.359 90.0874 64.8604 89.8658C64.3661 89.6399 63.9741 89.3075 63.6843 88.8686C63.3988 88.4297 63.256 87.8885 63.256 87.245C63.256 86.6911 63.3583 86.233 63.5629 85.8707C63.7674 85.5085 64.0465 85.2188 64.4002 85.0014C64.7539 84.7841 65.1523 84.62 65.5955 84.5092C66.043 84.3942 66.5053 84.3111 66.9826 84.2599C67.5579 84.2003 68.0245 84.147 68.3825 84.1001C68.7404 84.049 69.0004 83.9723 69.1623 83.87C69.3285 83.7635 69.4116 83.5994 69.4116 83.3778V83.3395C69.4116 82.858 69.2688 82.4851 68.9833 82.2209C68.6978 81.9567 68.2866 81.8246 67.7496 81.8246C67.1829 81.8246 66.7333 81.9482 66.4009 82.1953C66.0728 82.4425 65.8512 82.7344 65.7362 83.071L63.5756 82.7642C63.7461 82.1676 64.0273 81.669 64.4194 81.2685C64.8114 80.8636 65.2908 80.5611 65.8576 80.3608C66.4244 80.1562 67.0508 80.054 67.7369 80.054C68.2099 80.054 68.6808 80.1094 69.1495 80.2202C69.6183 80.331 70.0465 80.5142 70.4343 80.7699C70.8221 81.0213 71.1332 81.3643 71.3675 81.799C71.6062 82.2337 71.7255 82.777 71.7255 83.429V90H69.5011V88.6513H69.4244C69.2837 88.924 69.0856 89.1797 68.8299 89.4183C68.5785 89.6527 68.261 89.8423 67.8775 89.9872C67.4982 90.1278 67.0529 90.1982 66.5415 90.1982ZM67.1424 88.4979C67.6069 88.4979 68.0096 88.4062 68.3505 88.223C68.6914 88.0355 68.9535 87.7884 69.1367 87.4815C69.3242 87.1747 69.418 86.8402 69.418 86.478V85.321C69.3455 85.3807 69.2219 85.4361 69.0472 85.4872C68.8768 85.5384 68.685 85.5831 68.4719 85.6214C68.2589 85.6598 68.0479 85.6939 67.8391 85.7237C67.6303 85.7536 67.4492 85.7791 67.2958 85.8004C66.9506 85.8473 66.6417 85.924 66.369 86.0305C66.0962 86.1371 65.881 86.2862 65.7234 86.478C65.5657 86.6655 65.4869 86.9084 65.4869 87.2067C65.4869 87.6328 65.6424 87.9545 65.9535 88.1719C66.2646 88.3892 66.6609 88.4979 67.1424 88.4979ZM74.0522 90V80.1818H76.2958V81.8182H76.3981C76.5771 81.2514 76.8839 80.8146 77.3185 80.5078C77.7575 80.1967 78.2582 80.0412 78.8207 80.0412C78.9485 80.0412 79.0913 80.0476 79.2489 80.0604C79.4109 80.0689 79.5451 80.0838 79.6516 80.1051V82.2337C79.5536 82.1996 79.3981 82.1697 79.185 82.1442C78.9762 82.1143 78.7738 82.0994 78.5778 82.0994C78.1559 82.0994 77.7766 82.1911 77.44 82.3743C77.1076 82.5533 76.8455 82.8026 76.6538 83.1222C76.462 83.4418 76.3661 83.8104 76.3661 84.228V90H74.0522Z" fill="#111827"/>
<path d="M27.6506 113H26.358L30.0966 102.818H31.3693L35.108 113H33.8153L30.7727 104.429H30.6932L27.6506 113ZM28.1278 109.023H33.3381V110.116H28.1278V109.023ZM39.6371 113.159C38.9212 113.159 38.3047 112.99 37.7876 112.652C37.2706 112.314 36.8729 111.848 36.5945 111.255C36.3161 110.662 36.1768 109.984 36.1768 109.222C36.1768 108.446 36.3194 107.762 36.6044 107.168C36.8928 106.572 37.2938 106.106 37.8075 105.771C38.3246 105.433 38.9278 105.264 39.6172 105.264C40.1541 105.264 40.638 105.364 41.0689 105.562C41.4998 105.761 41.8527 106.04 42.1278 106.398C42.4029 106.756 42.5736 107.173 42.6399 107.651H41.4666C41.3771 107.303 41.1783 106.994 40.87 106.726C40.5651 106.454 40.1541 106.318 39.6371 106.318C39.1797 106.318 38.7786 106.437 38.4339 106.676C38.0926 106.911 37.8258 107.245 37.6335 107.675C37.4446 108.103 37.3501 108.605 37.3501 109.182C37.3501 109.772 37.4429 110.286 37.6286 110.723C37.8175 111.161 38.0826 111.5 38.424 111.742C38.7687 111.984 39.1731 112.105 39.6371 112.105C39.942 112.105 40.2188 112.052 40.4673 111.946C40.7159 111.84 40.9264 111.688 41.0987 111.489C41.2711 111.29 41.3937 111.051 41.4666 110.773H42.6399C42.5736 111.223 42.4096 111.629 42.1477 111.991C41.8892 112.349 41.5462 112.634 41.1186 112.846C40.6944 113.055 40.2005 113.159 39.6371 113.159ZM47.4574 113.159C46.7415 113.159 46.125 112.99 45.608 112.652C45.0909 112.314 44.6932 111.848 44.4148 111.255C44.1364 110.662 43.9972 109.984 43.9972 109.222C43.9972 108.446 44.1397 107.762 44.4247 107.168C44.7131 106.572 45.1141 106.106 45.6278 105.771C46.1449 105.433 46.7481 105.264 47.4375 105.264C47.9744 105.264 48.4583 105.364 48.8892 105.562C49.3201 105.761 49.6731 106.04 49.9482 106.398C50.2232 106.756 50.3939 107.173 50.4602 107.651H49.2869C49.1974 107.303 48.9986 106.994 48.6903 106.726C48.3854 106.454 47.9744 106.318 47.4574 106.318C47 106.318 46.599 106.437 46.2543 106.676C45.9129 106.911 45.6461 107.245 45.4538 107.675C45.2649 108.103 45.1705 108.605 45.1705 109.182C45.1705 109.772 45.2633 110.286 45.4489 110.723C45.6378 111.161 45.9029 111.5 46.2443 111.742C46.589 111.984 46.9934 112.105 47.4574 112.105C47.7623 112.105 48.0391 112.052 48.2876 111.946C48.5362 111.84 48.7467 111.688 48.919 111.489C49.0914 111.29 49.214 111.051 49.2869 110.773H50.4602C50.3939 111.223 50.2299 111.629 49.968 111.991C49.7095 112.349 49.3665 112.634 48.9389 112.846C48.5147 113.055 48.0208 113.159 47.4574 113.159ZM55.3771 113.159C54.6413 113.159 54.0066 112.997 53.473 112.672C52.9427 112.344 52.5334 111.886 52.245 111.3C51.96 110.71 51.8175 110.024 51.8175 109.241C51.8175 108.459 51.96 107.77 52.245 107.173C52.5334 106.573 52.9344 106.106 53.4482 105.771C53.9652 105.433 54.5684 105.264 55.2578 105.264C55.6555 105.264 56.0483 105.33 56.4361 105.463C56.8239 105.596 57.1768 105.811 57.495 106.109C57.8132 106.404 58.0668 106.795 58.2557 107.283C58.4446 107.77 58.5391 108.37 58.5391 109.082V109.58H52.6527V108.565H57.3459C57.3459 108.134 57.2597 107.75 57.0874 107.412C56.9183 107.074 56.6764 106.807 56.3615 106.612C56.05 106.416 55.6821 106.318 55.2578 106.318C54.7905 106.318 54.3861 106.434 54.0447 106.666C53.7067 106.895 53.4465 107.193 53.2642 107.561C53.0819 107.929 52.9908 108.323 52.9908 108.744V109.42C52.9908 109.997 53.0902 110.486 53.2891 110.887C53.4912 111.285 53.7713 111.588 54.1293 111.797C54.4872 112.002 54.9032 112.105 55.3771 112.105C55.6854 112.105 55.9638 112.062 56.2124 111.976C56.4643 111.886 56.6813 111.754 56.8636 111.578C57.0459 111.399 57.1868 111.177 57.2862 110.912L58.4197 111.23C58.3004 111.615 58.0999 111.953 57.8182 112.244C57.5365 112.533 57.1884 112.758 56.7741 112.92C56.3598 113.08 55.8942 113.159 55.3771 113.159ZM65.733 107.074L64.679 107.372C64.6127 107.196 64.5149 107.026 64.3857 106.86C64.2597 106.691 64.0874 106.552 63.8686 106.442C63.6499 106.333 63.3698 106.278 63.0284 106.278C62.5611 106.278 62.1716 106.386 61.8601 106.602C61.5518 106.814 61.3977 107.084 61.3977 107.412C61.3977 107.704 61.5038 107.934 61.7159 108.103C61.928 108.272 62.2595 108.413 62.7102 108.526L63.8438 108.804C64.5265 108.97 65.0353 109.223 65.37 109.565C65.7048 109.903 65.8722 110.339 65.8722 110.872C65.8722 111.31 65.7462 111.701 65.4943 112.045C65.2457 112.39 64.8977 112.662 64.4503 112.861C64.0028 113.06 63.4825 113.159 62.8892 113.159C62.1103 113.159 61.4657 112.99 60.9553 112.652C60.4448 112.314 60.1217 111.82 59.9858 111.17L61.0994 110.892C61.2055 111.303 61.406 111.611 61.701 111.817C61.9993 112.022 62.3887 112.125 62.8693 112.125C63.4162 112.125 63.8504 112.009 64.1719 111.777C64.4967 111.542 64.6591 111.26 64.6591 110.932C64.6591 110.667 64.5663 110.445 64.3807 110.266C64.1951 110.083 63.91 109.947 63.5256 109.858L62.2528 109.56C61.5535 109.394 61.0398 109.137 60.7116 108.789C60.3868 108.438 60.2244 107.999 60.2244 107.472C60.2244 107.041 60.3454 106.66 60.5874 106.328C60.8326 105.997 61.1657 105.737 61.5866 105.548C62.0109 105.359 62.4915 105.264 63.0284 105.264C63.7841 105.264 64.3774 105.43 64.8082 105.761C65.2424 106.093 65.5507 106.53 65.733 107.074ZM73.0474 107.074L71.9934 107.372C71.9271 107.196 71.8294 107.026 71.7001 106.86C71.5742 106.691 71.4018 106.552 71.1831 106.442C70.9643 106.333 70.6842 106.278 70.3429 106.278C69.8755 106.278 69.4861 106.386 69.1745 106.602C68.8663 106.814 68.7122 107.084 68.7122 107.412C68.7122 107.704 68.8182 107.934 69.0304 108.103C69.2425 108.272 69.5739 108.413 70.0247 108.526L71.1582 108.804C71.841 108.97 72.3497 109.223 72.6845 109.565C73.0192 109.903 73.1866 110.339 73.1866 110.872C73.1866 111.31 73.0607 111.701 72.8088 112.045C72.5602 112.39 72.2122 112.662 71.7647 112.861C71.3173 113.06 70.7969 113.159 70.2037 113.159C69.4248 113.159 68.7801 112.99 68.2697 112.652C67.7593 112.314 67.4361 111.82 67.3002 111.17L68.4139 110.892C68.5199 111.303 68.7205 111.611 69.0154 111.817C69.3137 112.022 69.7032 112.125 70.1838 112.125C70.7306 112.125 71.1648 112.009 71.4863 111.777C71.8111 111.542 71.9735 111.26 71.9735 110.932C71.9735 110.667 71.8807 110.445 71.6951 110.266C71.5095 110.083 71.2245 109.947 70.84 109.858L69.5673 109.56C68.868 109.394 68.3542 109.137 68.0261 108.789C67.7013 108.438 67.5389 107.999 67.5389 107.472C67.5389 107.041 67.6599 106.66 67.9018 106.328C68.1471 105.997 68.4802 105.737 68.9011 105.548C69.3253 105.359 69.8059 105.264 70.3429 105.264C71.0985 105.264 71.6918 105.43 72.1227 105.761C72.5569 106.093 72.8651 106.53 73.0474 107.074ZM79.646 115.864C79.4471 115.864 79.2698 115.847 79.114 115.814C78.9582 115.784 78.8505 115.754 78.7908 115.724L79.0891 114.69C79.3742 114.763 79.6261 114.79 79.8448 114.77C80.0636 114.75 80.2575 114.652 80.4265 114.477C80.5988 114.304 80.7563 114.024 80.8988 113.636L81.1175 113.04L78.2937 105.364H79.5664L81.6744 111.449H81.7539L83.8619 105.364H85.1346L81.8931 114.114C81.7473 114.508 81.5666 114.835 81.3512 115.093C81.1358 115.355 80.8855 115.549 80.6005 115.675C80.3188 115.801 80.0006 115.864 79.646 115.864ZM89.5121 113.159C88.8227 113.159 88.2178 112.995 87.6974 112.667C87.1804 112.339 86.776 111.88 86.4844 111.29C86.196 110.7 86.0518 110.01 86.0518 109.222C86.0518 108.426 86.196 107.732 86.4844 107.138C86.776 106.545 87.1804 106.085 87.6974 105.756C88.2178 105.428 88.8227 105.264 89.5121 105.264C90.2015 105.264 90.8047 105.428 91.3217 105.756C91.8421 106.085 92.2464 106.545 92.5348 107.138C92.8265 107.732 92.9723 108.426 92.9723 109.222C92.9723 110.01 92.8265 110.7 92.5348 111.29C92.2464 111.88 91.8421 112.339 91.3217 112.667C90.8047 112.995 90.2015 113.159 89.5121 113.159ZM89.5121 112.105C90.0357 112.105 90.4666 111.971 90.8047 111.702C91.1428 111.434 91.393 111.081 91.5554 110.643C91.7178 110.206 91.799 109.732 91.799 109.222C91.799 108.711 91.7178 108.236 91.5554 107.795C91.393 107.354 91.1428 106.998 90.8047 106.726C90.4666 106.454 90.0357 106.318 89.5121 106.318C88.9884 106.318 88.5575 106.454 88.2195 106.726C87.8814 106.998 87.6312 107.354 87.4688 107.795C87.3063 108.236 87.2251 108.711 87.2251 109.222C87.2251 109.732 87.3063 110.206 87.4688 110.643C87.6312 111.081 87.8814 111.434 88.2195 111.702C88.5575 111.971 88.9884 112.105 89.5121 112.105ZM99.5758 109.878V105.364H100.749V113H99.5758V111.707H99.4963C99.3173 112.095 99.0389 112.425 98.661 112.697C98.2832 112.965 97.8059 113.099 97.2292 113.099C96.752 113.099 96.3277 112.995 95.9565 112.786C95.5853 112.574 95.2936 112.256 95.0815 111.832C94.8694 111.404 94.7633 110.866 94.7633 110.216V105.364H95.9366V110.136C95.9366 110.693 96.0924 111.137 96.4039 111.469C96.7188 111.8 97.1199 111.966 97.6071 111.966C97.8987 111.966 98.1954 111.891 98.497 111.742C98.8019 111.593 99.0571 111.364 99.2626 111.056C99.4714 110.748 99.5758 110.355 99.5758 109.878ZM102.898 113V105.364H104.032V106.517H104.111C104.25 106.139 104.502 105.833 104.867 105.597C105.231 105.362 105.642 105.244 106.1 105.244C106.186 105.244 106.294 105.246 106.423 105.249C106.552 105.253 106.65 105.258 106.716 105.264V106.457C106.676 106.447 106.585 106.433 106.443 106.413C106.304 106.389 106.156 106.378 106 106.378C105.629 106.378 105.298 106.456 105.006 106.612C104.718 106.764 104.489 106.976 104.32 107.248C104.154 107.516 104.071 107.823 104.071 108.168V113H102.898ZM112.045 113V105.364H113.218V113H112.045ZM112.641 104.091C112.412 104.091 112.215 104.013 112.05 103.857C111.887 103.701 111.806 103.514 111.806 103.295C111.806 103.077 111.887 102.889 112.05 102.734C112.215 102.578 112.412 102.5 112.641 102.5C112.87 102.5 113.065 102.578 113.228 102.734C113.394 102.889 113.476 103.077 113.476 103.295C113.476 103.514 113.394 103.701 113.228 103.857C113.065 104.013 112.87 104.091 112.641 104.091ZM120.776 107.074L119.722 107.372C119.656 107.196 119.558 107.026 119.429 106.86C119.303 106.691 119.13 106.552 118.912 106.442C118.693 106.333 118.413 106.278 118.071 106.278C117.604 106.278 117.215 106.386 116.903 106.602C116.595 106.814 116.441 107.084 116.441 107.412C116.441 107.704 116.547 107.934 116.759 108.103C116.971 108.272 117.302 108.413 117.753 108.526L118.887 108.804C119.569 108.97 120.078 109.223 120.413 109.565C120.748 109.903 120.915 110.339 120.915 110.872C120.915 111.31 120.789 111.701 120.537 112.045C120.289 112.39 119.941 112.662 119.493 112.861C119.046 113.06 118.525 113.159 117.932 113.159C117.153 113.159 116.509 112.99 115.998 112.652C115.488 112.314 115.165 111.82 115.029 111.17L116.142 110.892C116.248 111.303 116.449 111.611 116.744 111.817C117.042 112.022 117.432 112.125 117.912 112.125C118.459 112.125 118.893 112.009 119.215 111.777C119.54 111.542 119.702 111.26 119.702 110.932C119.702 110.667 119.609 110.445 119.424 110.266C119.238 110.083 118.953 109.947 118.569 109.858L117.296 109.56C116.596 109.394 116.083 109.137 115.755 108.789C115.43 108.438 115.267 107.999 115.267 107.472C115.267 107.041 115.388 106.66 115.63 106.328C115.876 105.997 116.209 105.737 116.63 105.548C117.054 105.359 117.534 105.264 118.071 105.264C118.827 105.264 119.42 105.43 119.851 105.761C120.285 106.093 120.594 106.53 120.776 107.074ZM128.09 107.074L127.036 107.372C126.97 107.196 126.872 107.026 126.743 106.86C126.617 106.691 126.445 106.552 126.226 106.442C126.007 106.333 125.727 106.278 125.386 106.278C124.919 106.278 124.529 106.386 124.218 106.602C123.909 106.814 123.755 107.084 123.755 107.412C123.755 107.704 123.861 107.934 124.073 108.103C124.285 108.272 124.617 108.413 125.068 108.526L126.201 108.804C126.884 108.97 127.393 109.223 127.727 109.565C128.062 109.903 128.23 110.339 128.23 110.872C128.23 111.31 128.104 111.701 127.852 112.045C127.603 112.39 127.255 112.662 126.808 112.861C126.36 113.06 125.84 113.159 125.247 113.159C124.468 113.159 123.823 112.99 123.313 112.652C122.802 112.314 122.479 111.82 122.343 111.17L123.457 110.892C123.563 111.303 123.763 111.611 124.058 111.817C124.357 112.022 124.746 112.125 125.227 112.125C125.774 112.125 126.208 112.009 126.529 111.777C126.854 111.542 127.017 111.26 127.017 110.932C127.017 110.667 126.924 110.445 126.738 110.266C126.552 110.083 126.267 109.947 125.883 109.858L124.61 109.56C123.911 109.394 123.397 109.137 123.069 108.789C122.744 108.438 122.582 107.999 122.582 107.472C122.582 107.041 122.703 106.66 122.945 106.328C123.19 105.997 123.523 105.737 123.944 105.548C124.368 105.359 124.849 105.264 125.386 105.264C126.142 105.264 126.735 105.43 127.166 105.761C127.6 106.093 127.908 106.53 128.09 107.074ZM134.808 109.878V105.364H135.982V113H134.808V111.707H134.729C134.55 112.095 134.271 112.425 133.893 112.697C133.516 112.965 133.038 113.099 132.462 113.099C131.984 113.099 131.56 112.995 131.189 112.786C130.818 112.574 130.526 112.256 130.314 111.832C130.102 111.404 129.996 110.866 129.996 110.216V105.364H131.169V110.136C131.169 110.693 131.325 111.137 131.636 111.469C131.951 111.8 132.352 111.966 132.839 111.966C133.131 111.966 133.428 111.891 133.729 111.742C134.034 111.593 134.29 111.364 134.495 111.056C134.704 110.748 134.808 110.355 134.808 109.878ZM141.332 113.159C140.596 113.159 139.962 112.997 139.428 112.672C138.898 112.344 138.488 111.886 138.2 111.3C137.915 110.71 137.773 110.024 137.773 109.241C137.773 108.459 137.915 107.77 138.2 107.173C138.488 106.573 138.89 106.106 139.403 105.771C139.92 105.433 140.523 105.264 141.213 105.264C141.611 105.264 142.003 105.33 142.391 105.463C142.779 105.596 143.132 105.811 143.45 106.109C143.768 106.404 144.022 106.795 144.211 107.283C144.4 107.77 144.494 108.37 144.494 109.082V109.58H138.608V108.565H143.301C143.301 108.134 143.215 107.75 143.042 107.412C142.873 107.074 142.631 106.807 142.317 106.612C142.005 106.416 141.637 106.318 141.213 106.318C140.746 106.318 140.341 106.434 140 106.666C139.662 106.895 139.402 107.193 139.219 107.561C139.037 107.929 138.946 108.323 138.946 108.744V109.42C138.946 109.997 139.045 110.486 139.244 110.887C139.446 111.285 139.726 111.588 140.084 111.797C140.442 112.002 140.858 112.105 141.332 112.105C141.64 112.105 141.919 112.062 142.167 111.976C142.419 111.886 142.636 111.754 142.819 111.578C143.001 111.399 143.142 111.177 143.241 110.912L144.375 111.23C144.256 111.615 144.055 111.953 143.773 112.244C143.492 112.533 143.144 112.758 142.729 112.92C142.315 113.08 141.849 113.159 141.332 113.159ZM151.688 107.074L150.634 107.372C150.568 107.196 150.47 107.026 150.341 106.86C150.215 106.691 150.042 106.552 149.824 106.442C149.605 106.333 149.325 106.278 148.983 106.278C148.516 106.278 148.127 106.386 147.815 106.602C147.507 106.814 147.353 107.084 147.353 107.412C147.353 107.704 147.459 107.934 147.671 108.103C147.883 108.272 148.215 108.413 148.665 108.526L149.799 108.804C150.482 108.97 150.99 109.223 151.325 109.565C151.66 109.903 151.827 110.339 151.827 110.872C151.827 111.31 151.701 111.701 151.449 112.045C151.201 112.39 150.853 112.662 150.405 112.861C149.958 113.06 149.438 113.159 148.844 113.159C148.065 113.159 147.421 112.99 146.91 112.652C146.4 112.314 146.077 111.82 145.941 111.17L147.055 110.892C147.161 111.303 147.361 111.611 147.656 111.817C147.954 112.022 148.344 112.125 148.824 112.125C149.371 112.125 149.805 112.009 150.127 111.777C150.452 111.542 150.614 111.26 150.614 110.932C150.614 110.667 150.521 110.445 150.336 110.266C150.15 110.083 149.865 109.947 149.481 109.858L148.208 109.56C147.509 109.394 146.995 109.137 146.667 108.789C146.342 108.438 146.18 107.999 146.18 107.472C146.18 107.041 146.3 106.66 146.542 106.328C146.788 105.997 147.121 105.737 147.542 105.548C147.966 105.359 148.447 105.264 148.983 105.264C149.739 105.264 150.332 105.43 150.763 105.761C151.198 106.093 151.506 106.53 151.688 107.074ZM155.343 111.608L155.264 112.145C155.208 112.523 155.121 112.927 155.005 113.358C154.893 113.789 154.775 114.195 154.652 114.576C154.53 114.957 154.429 115.26 154.349 115.486H153.454C153.497 115.274 153.554 114.994 153.623 114.646C153.693 114.298 153.762 113.908 153.832 113.477C153.905 113.05 153.965 112.612 154.011 112.165L154.071 111.608H155.343ZM164.776 105.364V106.358H160.818V105.364H164.776ZM161.972 103.534H163.145V110.812C163.145 111.144 163.193 111.393 163.289 111.558C163.389 111.721 163.515 111.83 163.667 111.886C163.823 111.939 163.987 111.966 164.159 111.966C164.289 111.966 164.395 111.959 164.477 111.946C164.56 111.929 164.627 111.916 164.676 111.906L164.915 112.96C164.835 112.99 164.724 113.02 164.582 113.05C164.439 113.083 164.259 113.099 164.04 113.099C163.709 113.099 163.384 113.028 163.066 112.886C162.751 112.743 162.489 112.526 162.28 112.234C162.075 111.943 161.972 111.575 161.972 111.131V103.534ZM166.541 113V105.364H167.714V113H166.541ZM167.137 104.091C166.909 104.091 166.711 104.013 166.546 103.857C166.383 103.701 166.302 103.514 166.302 103.295C166.302 103.077 166.383 102.889 166.546 102.734C166.711 102.578 166.909 102.5 167.137 102.5C167.366 102.5 167.561 102.578 167.724 102.734C167.89 102.889 167.972 103.077 167.972 103.295C167.972 103.514 167.89 103.701 167.724 103.857C167.561 104.013 167.366 104.091 167.137 104.091ZM172.965 113.159C172.249 113.159 171.633 112.99 171.116 112.652C170.599 112.314 170.201 111.848 169.923 111.255C169.644 110.662 169.505 109.984 169.505 109.222C169.505 108.446 169.647 107.762 169.933 107.168C170.221 106.572 170.622 106.106 171.136 105.771C171.653 105.433 172.256 105.264 172.945 105.264C173.482 105.264 173.966 105.364 174.397 105.562C174.828 105.761 175.181 106.04 175.456 106.398C175.731 106.756 175.902 107.173 175.968 107.651H174.795C174.705 107.303 174.506 106.994 174.198 106.726C173.893 106.454 173.482 106.318 172.965 106.318C172.508 106.318 172.107 106.437 171.762 106.676C171.421 106.911 171.154 107.245 170.962 107.675C170.773 108.103 170.678 108.605 170.678 109.182C170.678 109.772 170.771 110.286 170.957 110.723C171.146 111.161 171.411 111.5 171.752 111.742C172.097 111.984 172.501 112.105 172.965 112.105C173.27 112.105 173.547 112.052 173.795 111.946C174.044 111.84 174.254 111.688 174.427 111.489C174.599 111.29 174.722 111.051 174.795 110.773H175.968C175.902 111.223 175.738 111.629 175.476 111.991C175.217 112.349 174.874 112.634 174.447 112.846C174.022 113.055 173.529 113.159 172.965 113.159ZM178.777 110.216L178.757 108.764H178.996L182.337 105.364H183.788L180.229 108.963H180.129L178.777 110.216ZM177.683 113V102.818H178.857V113H177.683ZM182.536 113L179.553 109.222L180.388 108.406L184.027 113H182.536ZM188.186 113.159C187.45 113.159 186.815 112.997 186.282 112.672C185.751 112.344 185.342 111.886 185.054 111.3C184.769 110.71 184.626 110.024 184.626 109.241C184.626 108.459 184.769 107.77 185.054 107.173C185.342 106.573 185.743 106.106 186.257 105.771C186.774 105.433 187.377 105.264 188.066 105.264C188.464 105.264 188.857 105.33 189.245 105.463C189.632 105.596 189.985 105.811 190.304 106.109C190.622 106.404 190.875 106.795 191.064 107.283C191.253 107.77 191.348 108.37 191.348 109.082V109.58H185.461V108.565H190.154C190.154 108.134 190.068 107.75 189.896 107.412C189.727 107.074 189.485 106.807 189.17 106.612C188.859 106.416 188.491 106.318 188.066 106.318C187.599 106.318 187.195 106.434 186.853 106.666C186.515 106.895 186.255 107.193 186.073 107.561C185.891 107.929 185.799 108.323 185.799 108.744V109.42C185.799 109.997 185.899 110.486 186.098 110.887C186.3 111.285 186.58 111.588 186.938 111.797C187.296 112.002 187.712 112.105 188.186 112.105C188.494 112.105 188.772 112.062 189.021 111.976C189.273 111.886 189.49 111.754 189.672 111.578C189.855 111.399 189.995 111.177 190.095 110.912L191.228 111.23C191.109 111.615 190.908 111.953 190.627 112.244C190.345 112.533 189.997 112.758 189.583 112.92C189.168 113.08 188.703 113.159 188.186 113.159ZM196.453 105.364V106.358H192.496V105.364H196.453ZM193.65 103.534H194.823V110.812C194.823 111.144 194.871 111.393 194.967 111.558C195.066 111.721 195.192 111.83 195.345 111.886C195.501 111.939 195.665 111.966 195.837 111.966C195.966 111.966 196.072 111.959 196.155 111.946C196.238 111.929 196.304 111.916 196.354 111.906L196.593 112.96C196.513 112.99 196.402 113.02 196.26 113.05C196.117 113.083 195.936 113.099 195.718 113.099C195.386 113.099 195.061 113.028 194.743 112.886C194.428 112.743 194.167 112.526 193.958 112.234C193.752 111.943 193.65 111.575 193.65 111.131V103.534ZM203.491 107.074L202.437 107.372C202.371 107.196 202.273 107.026 202.143 106.86C202.018 106.691 201.845 106.552 201.626 106.442C201.408 106.333 201.128 106.278 200.786 106.278C200.319 106.278 199.929 106.386 199.618 106.602C199.31 106.814 199.156 107.084 199.156 107.412C199.156 107.704 199.262 107.934 199.474 108.103C199.686 108.272 200.017 108.413 200.468 108.526L201.602 108.804C202.284 108.97 202.793 109.223 203.128 109.565C203.463 109.903 203.63 110.339 203.63 110.872C203.63 111.31 203.504 111.701 203.252 112.045C203.004 112.39 202.656 112.662 202.208 112.861C201.761 113.06 201.24 113.159 200.647 113.159C199.868 113.159 199.223 112.99 198.713 112.652C198.203 112.314 197.879 111.82 197.744 111.17L198.857 110.892C198.963 111.303 199.164 111.611 199.459 111.817C199.757 112.022 200.147 112.125 200.627 112.125C201.174 112.125 201.608 112.009 201.93 111.777C202.254 111.542 202.417 111.26 202.417 110.932C202.417 110.667 202.324 110.445 202.138 110.266C201.953 110.083 201.668 109.947 201.283 109.858L200.011 109.56C199.311 109.394 198.798 109.137 198.469 108.789C198.145 108.438 197.982 107.999 197.982 107.472C197.982 107.041 198.103 106.66 198.345 106.328C198.59 105.997 198.924 105.737 199.344 105.548C199.769 105.359 200.249 105.264 200.786 105.264C201.542 105.264 202.135 105.43 202.566 105.761C203 106.093 203.308 106.53 203.491 107.074ZM207.146 111.608L207.067 112.145C207.01 112.523 206.924 112.927 206.808 113.358C206.695 113.789 206.578 114.195 206.455 114.576C206.332 114.957 206.231 115.26 206.152 115.486H205.257C205.3 115.274 205.356 114.994 205.426 114.646C205.496 114.298 205.565 113.908 205.635 113.477C205.708 113.05 205.767 112.612 205.814 112.165L205.873 111.608H207.146ZM215.505 113.179C215.021 113.179 214.582 113.088 214.187 112.906C213.793 112.72 213.48 112.453 213.248 112.105C213.016 111.754 212.9 111.33 212.9 110.832C212.9 110.395 212.986 110.04 213.158 109.768C213.33 109.493 213.561 109.278 213.849 109.122C214.137 108.966 214.456 108.85 214.804 108.774C215.155 108.695 215.508 108.632 215.863 108.585C216.327 108.526 216.703 108.481 216.991 108.451C217.283 108.418 217.495 108.363 217.627 108.287C217.763 108.211 217.831 108.078 217.831 107.889V107.849C217.831 107.359 217.697 106.978 217.429 106.706C217.163 106.434 216.761 106.298 216.221 106.298C215.66 106.298 215.221 106.421 214.903 106.666C214.585 106.911 214.361 107.173 214.232 107.452L213.118 107.054C213.317 106.59 213.582 106.229 213.914 105.97C214.248 105.708 214.613 105.526 215.007 105.423C215.405 105.317 215.796 105.264 216.181 105.264C216.426 105.264 216.708 105.294 217.026 105.354C217.347 105.41 217.657 105.528 217.956 105.707C218.257 105.886 218.507 106.156 218.706 106.517C218.905 106.878 219.005 107.362 219.005 107.969V113H217.831V111.966H217.772C217.692 112.132 217.56 112.309 217.374 112.498C217.188 112.687 216.941 112.848 216.633 112.98C216.325 113.113 215.949 113.179 215.505 113.179ZM215.684 112.125C216.148 112.125 216.539 112.034 216.857 111.852C217.178 111.669 217.42 111.434 217.583 111.146C217.748 110.857 217.831 110.554 217.831 110.236V109.162C217.782 109.222 217.672 109.276 217.503 109.326C217.337 109.372 217.145 109.414 216.926 109.45C216.711 109.483 216.501 109.513 216.295 109.54C216.093 109.563 215.929 109.583 215.803 109.599C215.498 109.639 215.213 109.704 214.948 109.793C214.686 109.879 214.474 110.01 214.311 110.186C214.152 110.358 214.073 110.594 214.073 110.892C214.073 111.3 214.224 111.608 214.525 111.817C214.83 112.022 215.216 112.125 215.684 112.125ZM222.319 108.406V113H221.146V105.364H222.28V106.557H222.379C222.558 106.169 222.83 105.857 223.194 105.622C223.559 105.384 224.03 105.264 224.606 105.264C225.123 105.264 225.576 105.37 225.964 105.582C226.351 105.791 226.653 106.109 226.868 106.537C227.084 106.961 227.192 107.498 227.192 108.148V113H226.018V108.227C226.018 107.627 225.863 107.16 225.551 106.825C225.239 106.487 224.812 106.318 224.268 106.318C223.894 106.318 223.559 106.399 223.264 106.562C222.972 106.724 222.742 106.961 222.573 107.273C222.404 107.584 222.319 107.962 222.319 108.406ZM232.219 113.159C231.583 113.159 231.021 112.998 230.534 112.677C230.047 112.352 229.665 111.895 229.39 111.305C229.115 110.711 228.978 110.01 228.978 109.202C228.978 108.4 229.115 107.704 229.39 107.114C229.665 106.524 230.048 106.068 230.539 105.746C231.029 105.425 231.596 105.264 232.239 105.264C232.736 105.264 233.129 105.347 233.417 105.513C233.709 105.675 233.931 105.861 234.083 106.07C234.239 106.275 234.36 106.444 234.446 106.577H234.546V102.818H235.719V113H234.586V111.827H234.446C234.36 111.966 234.238 112.142 234.078 112.354C233.919 112.562 233.692 112.75 233.397 112.915C233.102 113.078 232.71 113.159 232.219 113.159ZM232.378 112.105C232.849 112.105 233.247 111.982 233.571 111.737C233.896 111.489 234.143 111.146 234.312 110.708C234.481 110.267 234.566 109.759 234.566 109.182C234.566 108.612 234.483 108.113 234.317 107.685C234.151 107.254 233.906 106.92 233.581 106.681C233.257 106.439 232.855 106.318 232.378 106.318C231.881 106.318 231.467 106.446 231.135 106.701C230.807 106.953 230.56 107.296 230.395 107.73C230.232 108.161 230.151 108.645 230.151 109.182C230.151 109.725 230.234 110.219 230.4 110.663C230.569 111.104 230.817 111.455 231.145 111.717C231.477 111.976 231.888 112.105 232.378 112.105ZM241.968 115.864V105.364H243.102V106.577H243.241C243.327 106.444 243.447 106.275 243.599 106.07C243.755 105.861 243.977 105.675 244.265 105.513C244.557 105.347 244.951 105.264 245.449 105.264C246.092 105.264 246.658 105.425 247.149 105.746C247.639 106.068 248.022 106.524 248.297 107.114C248.572 107.704 248.71 108.4 248.71 109.202C248.71 110.01 248.572 110.711 248.297 111.305C248.022 111.895 247.641 112.352 247.154 112.677C246.667 112.998 246.105 113.159 245.468 113.159C244.978 113.159 244.585 113.078 244.29 112.915C243.995 112.75 243.768 112.562 243.609 112.354C243.45 112.142 243.327 111.966 243.241 111.827H243.142V115.864H241.968ZM243.122 109.182C243.122 109.759 243.206 110.267 243.375 110.708C243.544 111.146 243.791 111.489 244.116 111.737C244.441 111.982 244.839 112.105 245.309 112.105C245.8 112.105 246.209 111.976 246.537 111.717C246.869 111.455 247.117 111.104 247.283 110.663C247.452 110.219 247.537 109.725 247.537 109.182C247.537 108.645 247.454 108.161 247.288 107.73C247.126 107.296 246.879 106.953 246.547 106.701C246.219 106.446 245.806 106.318 245.309 106.318C244.832 106.318 244.431 106.439 244.106 106.681C243.781 106.92 243.536 107.254 243.37 107.685C243.205 108.113 243.122 108.612 243.122 109.182ZM250.5 113V105.364H251.633V106.517H251.713C251.852 106.139 252.104 105.833 252.468 105.597C252.833 105.362 253.244 105.244 253.701 105.244C253.788 105.244 253.895 105.246 254.025 105.249C254.154 105.253 254.252 105.258 254.318 105.264V106.457C254.278 106.447 254.187 106.433 254.044 106.413C253.905 106.389 253.758 106.378 253.602 106.378C253.231 106.378 252.899 106.456 252.608 106.612C252.319 106.764 252.091 106.976 251.922 107.248C251.756 107.516 251.673 107.823 251.673 108.168V113H250.5ZM258.578 113.159C257.889 113.159 257.284 112.995 256.764 112.667C256.247 112.339 255.842 111.88 255.551 111.29C255.262 110.7 255.118 110.01 255.118 109.222C255.118 108.426 255.262 107.732 255.551 107.138C255.842 106.545 256.247 106.085 256.764 105.756C257.284 105.428 257.889 105.264 258.578 105.264C259.268 105.264 259.871 105.428 260.388 105.756C260.908 106.085 261.313 106.545 261.601 107.138C261.893 107.732 262.039 108.426 262.039 109.222C262.039 110.01 261.893 110.7 261.601 111.29C261.313 111.88 260.908 112.339 260.388 112.667C259.871 112.995 259.268 113.159 258.578 113.159ZM258.578 112.105C259.102 112.105 259.533 111.971 259.871 111.702C260.209 111.434 260.459 111.081 260.622 110.643C260.784 110.206 260.865 109.732 260.865 109.222C260.865 108.711 260.784 108.236 260.622 107.795C260.459 107.354 260.209 106.998 259.871 106.726C259.533 106.454 259.102 106.318 258.578 106.318C258.055 106.318 257.624 106.454 257.286 106.726C256.948 106.998 256.698 107.354 256.535 107.795C256.373 108.236 256.292 108.711 256.292 109.222C256.292 109.732 256.373 110.206 256.535 110.643C256.698 111.081 256.948 111.434 257.286 111.702C257.624 111.971 258.055 112.105 258.578 112.105ZM263.83 105.364H265.003V113.557C265.003 114.027 264.922 114.435 264.759 114.78C264.6 115.125 264.358 115.391 264.034 115.58C263.712 115.769 263.306 115.864 262.816 115.864C262.776 115.864 262.736 115.864 262.696 115.864C262.656 115.864 262.617 115.864 262.577 115.864V114.77C262.617 114.77 262.653 114.77 262.686 114.77C262.719 114.77 262.756 114.77 262.796 114.77C263.154 114.77 263.415 114.664 263.581 114.452C263.747 114.243 263.83 113.945 263.83 113.557V105.364ZM264.406 104.091C264.178 104.091 263.981 104.013 263.815 103.857C263.652 103.701 263.571 103.514 263.571 103.295C263.571 103.077 263.652 102.889 263.815 102.734C263.981 102.578 264.178 102.5 264.406 102.5C264.635 102.5 264.831 102.578 264.993 102.734C265.159 102.889 265.242 103.077 265.242 103.295C265.242 103.514 265.159 103.701 264.993 103.857C264.831 104.013 264.635 104.091 264.406 104.091ZM270.354 113.159C269.618 113.159 268.983 112.997 268.45 112.672C267.919 112.344 267.51 111.886 267.222 111.3C266.937 110.71 266.794 110.024 266.794 109.241C266.794 108.459 266.937 107.77 267.222 107.173C267.51 106.573 267.911 106.106 268.425 105.771C268.942 105.433 269.545 105.264 270.234 105.264C270.632 105.264 271.025 105.33 271.413 105.463C271.8 105.596 272.153 105.811 272.472 106.109C272.79 106.404 273.043 106.795 273.232 107.283C273.421 107.77 273.516 108.37 273.516 109.082V109.58H267.629V108.565H272.322C272.322 108.134 272.236 107.75 272.064 107.412C271.895 107.074 271.653 106.807 271.338 106.612C271.027 106.416 270.659 106.318 270.234 106.318C269.767 106.318 269.363 106.434 269.021 106.666C268.683 106.895 268.423 107.193 268.241 107.561C268.058 107.929 267.967 108.323 267.967 108.744V109.42C267.967 109.997 268.067 110.486 268.266 110.887C268.468 111.285 268.748 111.588 269.106 111.797C269.464 112.002 269.88 112.105 270.354 112.105C270.662 112.105 270.94 112.062 271.189 111.976C271.441 111.886 271.658 111.754 271.84 111.578C272.022 111.399 272.163 111.177 272.263 110.912L273.396 111.23C273.277 111.615 273.076 111.953 272.795 112.244C272.513 112.533 272.165 112.758 271.751 112.92C271.336 113.08 270.871 113.159 270.354 113.159ZM278.403 113.159C277.687 113.159 277.07 112.99 276.553 112.652C276.036 112.314 275.638 111.848 275.36 111.255C275.082 110.662 274.942 109.984 274.942 109.222C274.942 108.446 275.085 107.762 275.37 107.168C275.658 106.572 276.059 106.106 276.573 105.771C277.09 105.433 277.693 105.264 278.383 105.264C278.92 105.264 279.404 105.364 279.835 105.562C280.265 105.761 280.618 106.04 280.893 106.398C281.169 106.756 281.339 107.173 281.406 107.651H280.232C280.143 107.303 279.944 106.994 279.636 106.726C279.331 106.454 278.92 106.318 278.403 106.318C277.945 106.318 277.544 106.437 277.2 106.676C276.858 106.911 276.591 107.245 276.399 107.675C276.21 108.103 276.116 108.605 276.116 109.182C276.116 109.772 276.209 110.286 276.394 110.723C276.583 111.161 276.848 111.5 277.19 111.742C277.534 111.984 277.939 112.105 278.403 112.105C278.708 112.105 278.984 112.052 279.233 111.946C279.482 111.84 279.692 111.688 279.864 111.489C280.037 111.29 280.159 111.051 280.232 110.773H281.406C281.339 111.223 281.175 111.629 280.913 111.991C280.655 112.349 280.312 112.634 279.884 112.846C279.46 113.055 278.966 113.159 278.403 113.159ZM286.442 105.364V106.358H282.484V105.364H286.442ZM283.638 103.534H284.811V110.812C284.811 111.144 284.859 111.393 284.955 111.558C285.055 111.721 285.181 111.83 285.333 111.886C285.489 111.939 285.653 111.966 285.825 111.966C285.955 111.966 286.061 111.959 286.143 111.946C286.226 111.929 286.293 111.916 286.342 111.906L286.581 112.96C286.501 112.99 286.39 113.02 286.248 113.05C286.105 113.083 285.925 113.099 285.706 113.099C285.375 113.099 285.05 113.028 284.732 112.886C284.417 112.743 284.155 112.526 283.946 112.234C283.741 111.943 283.638 111.575 283.638 111.131V103.534ZM292.144 113V105.364H293.278V106.517H293.357C293.496 106.139 293.748 105.833 294.113 105.597C294.478 105.362 294.888 105.244 295.346 105.244C295.432 105.244 295.54 105.246 295.669 105.249C295.798 105.253 295.896 105.258 295.962 105.264V106.457C295.923 106.447 295.831 106.433 295.689 106.413C295.55 106.389 295.402 106.378 295.246 106.378C294.875 106.378 294.544 106.456 294.252 106.612C293.964 106.764 293.735 106.976 293.566 107.248C293.4 107.516 293.317 107.823 293.317 108.168V113H292.144ZM300.223 113.159C299.534 113.159 298.929 112.995 298.408 112.667C297.891 112.339 297.487 111.88 297.195 111.29C296.907 110.7 296.763 110.01 296.763 109.222C296.763 108.426 296.907 107.732 297.195 107.138C297.487 106.545 297.891 106.085 298.408 105.756C298.929 105.428 299.534 105.264 300.223 105.264C300.912 105.264 301.516 105.428 302.033 105.756C302.553 106.085 302.957 106.545 303.246 107.138C303.537 107.732 303.683 108.426 303.683 109.222C303.683 110.01 303.537 110.7 303.246 111.29C302.957 111.88 302.553 112.339 302.033 112.667C301.516 112.995 300.912 113.159 300.223 113.159ZM300.223 112.105C300.747 112.105 301.178 111.971 301.516 111.702C301.854 111.434 302.104 111.081 302.266 110.643C302.429 110.206 302.51 109.732 302.51 109.222C302.51 108.711 302.429 108.236 302.266 107.795C302.104 107.354 301.854 106.998 301.516 106.726C301.178 106.454 300.747 106.318 300.223 106.318C299.699 106.318 299.268 106.454 298.93 106.726C298.592 106.998 298.342 107.354 298.18 107.795C298.017 108.236 297.936 108.711 297.936 109.222C297.936 109.732 298.017 110.206 298.18 110.643C298.342 111.081 298.592 111.434 298.93 111.702C299.268 111.971 299.699 112.105 300.223 112.105ZM307.721 113.179C307.238 113.179 306.798 113.088 306.404 112.906C306.01 112.72 305.696 112.453 305.464 112.105C305.232 111.754 305.116 111.33 305.116 110.832C305.116 110.395 305.202 110.04 305.375 109.768C305.547 109.493 305.778 109.278 306.066 109.122C306.354 108.966 306.672 108.85 307.02 108.774C307.372 108.695 307.725 108.632 308.079 108.585C308.543 108.526 308.92 108.481 309.208 108.451C309.5 108.418 309.712 108.363 309.844 108.287C309.98 108.211 310.048 108.078 310.048 107.889V107.849C310.048 107.359 309.914 106.978 309.645 106.706C309.38 106.434 308.978 106.298 308.437 106.298C307.877 106.298 307.438 106.421 307.12 106.666C306.802 106.911 306.578 107.173 306.449 107.452L305.335 107.054C305.534 106.59 305.799 106.229 306.131 105.97C306.465 105.708 306.83 105.526 307.224 105.423C307.622 105.317 308.013 105.264 308.398 105.264C308.643 105.264 308.925 105.294 309.243 105.354C309.564 105.41 309.874 105.528 310.172 105.707C310.474 105.886 310.724 106.156 310.923 106.517C311.122 106.878 311.221 107.362 311.221 107.969V113H310.048V111.966H309.988C309.909 112.132 309.776 112.309 309.591 112.498C309.405 112.687 309.158 112.848 308.85 112.98C308.542 113.113 308.166 113.179 307.721 113.179ZM307.9 112.125C308.364 112.125 308.756 112.034 309.074 111.852C309.395 111.669 309.637 111.434 309.8 111.146C309.965 110.857 310.048 110.554 310.048 110.236V109.162C309.998 109.222 309.889 109.276 309.72 109.326C309.554 109.372 309.362 109.414 309.143 109.45C308.928 109.483 308.717 109.513 308.512 109.54C308.31 109.563 308.146 109.583 308.02 109.599C307.715 109.639 307.43 109.704 307.165 109.793C306.903 109.879 306.691 110.01 306.528 110.186C306.369 110.358 306.29 110.594 306.29 110.892C306.29 111.3 306.44 111.608 306.742 111.817C307.047 112.022 307.433 112.125 307.9 112.125ZM316.246 113.159C315.61 113.159 315.048 112.998 314.561 112.677C314.074 112.352 313.693 111.895 313.418 111.305C313.143 110.711 313.005 110.01 313.005 109.202C313.005 108.4 313.143 107.704 313.418 107.114C313.693 106.524 314.076 106.068 314.566 105.746C315.057 105.425 315.623 105.264 316.266 105.264C316.763 105.264 317.156 105.347 317.445 105.513C317.736 105.675 317.958 105.861 318.111 106.07C318.267 106.275 318.388 106.444 318.474 106.577H318.573V102.818H319.746V113H318.613V111.827H318.474C318.388 111.966 318.265 112.142 318.106 112.354C317.947 112.562 317.72 112.75 317.425 112.915C317.13 113.078 316.737 113.159 316.246 113.159ZM316.406 112.105C316.876 112.105 317.274 111.982 317.599 111.737C317.924 111.489 318.17 111.146 318.339 110.708C318.509 110.267 318.593 109.759 318.593 109.182C318.593 108.612 318.51 108.113 318.344 107.685C318.179 107.254 317.933 106.92 317.609 106.681C317.284 106.439 316.883 106.318 316.406 106.318C315.908 106.318 315.494 106.446 315.163 106.701C314.835 106.953 314.588 107.296 314.422 107.73C314.259 108.161 314.178 108.645 314.178 109.182C314.178 109.725 314.261 110.219 314.427 110.663C314.596 111.104 314.844 111.455 315.173 111.717C315.504 111.976 315.915 112.105 316.406 112.105ZM322.058 113V105.364H323.192V106.557H323.291C323.45 106.149 323.707 105.833 324.062 105.607C324.416 105.379 324.842 105.264 325.339 105.264C325.843 105.264 326.263 105.379 326.597 105.607C326.935 105.833 327.199 106.149 327.388 106.557H327.467C327.663 106.162 327.956 105.849 328.347 105.617C328.738 105.382 329.207 105.264 329.754 105.264C330.437 105.264 330.996 105.478 331.43 105.906C331.864 106.33 332.081 106.991 332.081 107.889V113H330.908V107.889C330.908 107.326 330.754 106.923 330.445 106.681C330.137 106.439 329.774 106.318 329.357 106.318C328.82 106.318 328.404 106.481 328.109 106.805C327.814 107.127 327.666 107.535 327.666 108.028V113H326.473V107.77C326.473 107.336 326.332 106.986 326.05 106.721C325.769 106.452 325.406 106.318 324.962 106.318C324.657 106.318 324.372 106.399 324.107 106.562C323.845 106.724 323.633 106.95 323.47 107.238C323.311 107.523 323.232 107.853 323.232 108.227V113H322.058ZM336.473 113.179C335.989 113.179 335.55 113.088 335.156 112.906C334.761 112.72 334.448 112.453 334.216 112.105C333.984 111.754 333.868 111.33 333.868 110.832C333.868 110.395 333.954 110.04 334.127 109.768C334.299 109.493 334.529 109.278 334.818 109.122C335.106 108.966 335.424 108.85 335.772 108.774C336.124 108.695 336.477 108.632 336.831 108.585C337.295 108.526 337.672 108.481 337.96 108.451C338.252 108.418 338.464 108.363 338.596 108.287C338.732 108.211 338.8 108.078 338.8 107.889V107.849C338.8 107.359 338.666 106.978 338.397 106.706C338.132 106.434 337.73 106.298 337.189 106.298C336.629 106.298 336.19 106.421 335.872 106.666C335.554 106.911 335.33 107.173 335.201 107.452L334.087 107.054C334.286 106.59 334.551 106.229 334.882 105.97C335.217 105.708 335.582 105.526 335.976 105.423C336.374 105.317 336.765 105.264 337.15 105.264C337.395 105.264 337.676 105.294 337.995 105.354C338.316 105.41 338.626 105.528 338.924 105.707C339.226 105.886 339.476 106.156 339.675 106.517C339.874 106.878 339.973 107.362 339.973 107.969V113H338.8V111.966H338.74C338.661 112.132 338.528 112.309 338.343 112.498C338.157 112.687 337.91 112.848 337.602 112.98C337.294 113.113 336.917 113.179 336.473 113.179ZM336.652 112.125C337.116 112.125 337.507 112.034 337.826 111.852C338.147 111.669 338.389 111.434 338.551 111.146C338.717 110.857 338.8 110.554 338.8 110.236V109.162C338.75 109.222 338.641 109.276 338.472 109.326C338.306 109.372 338.114 109.414 337.895 109.45C337.68 109.483 337.469 109.513 337.264 109.54C337.062 109.563 336.898 109.583 336.772 109.599C336.467 109.639 336.182 109.704 335.917 109.793C335.655 109.879 335.443 110.01 335.28 110.186C335.121 110.358 335.042 110.594 335.042 110.892C335.042 111.3 335.192 111.608 335.494 111.817C335.799 112.022 336.185 112.125 336.652 112.125ZM342.115 115.864V105.364H343.248V106.577H343.388C343.474 106.444 343.593 106.275 343.746 106.07C343.901 105.861 344.123 105.675 344.412 105.513C344.703 105.347 345.098 105.264 345.595 105.264C346.238 105.264 346.805 105.425 347.295 105.746C347.786 106.068 348.169 106.524 348.444 107.114C348.719 107.704 348.856 108.4 348.856 109.202C348.856 110.01 348.719 110.711 348.444 111.305C348.169 111.895 347.787 112.352 347.3 112.677C346.813 112.998 346.251 113.159 345.615 113.159C345.124 113.159 344.732 113.078 344.437 112.915C344.142 112.75 343.915 112.562 343.756 112.354C343.596 112.142 343.474 111.966 343.388 111.827H343.288V115.864H342.115ZM343.268 109.182C343.268 109.759 343.353 110.267 343.522 110.708C343.691 111.146 343.938 111.489 344.263 111.737C344.587 111.982 344.985 112.105 345.456 112.105C345.946 112.105 346.356 111.976 346.684 111.717C347.015 111.455 347.264 111.104 347.43 110.663C347.599 110.219 347.683 109.725 347.683 109.182C347.683 108.645 347.6 108.161 347.434 107.73C347.272 107.296 347.025 106.953 346.694 106.701C346.366 106.446 345.953 106.318 345.456 106.318C344.979 106.318 344.577 106.439 344.253 106.681C343.928 106.92 343.683 107.254 343.517 107.685C343.351 108.113 343.268 108.612 343.268 109.182ZM356.055 107.074L355.001 107.372C354.935 107.196 354.837 107.026 354.708 106.86C354.582 106.691 354.41 106.552 354.191 106.442C353.972 106.333 353.692 106.278 353.351 106.278C352.883 106.278 352.494 106.386 352.182 106.602C351.874 106.814 351.72 107.084 351.72 107.412C351.72 107.704 351.826 107.934 352.038 108.103C352.25 108.272 352.582 108.413 353.032 108.526L354.166 108.804C354.849 108.97 355.358 109.223 355.692 109.565C356.027 109.903 356.194 110.339 356.194 110.872C356.194 111.31 356.068 111.701 355.817 112.045C355.568 112.39 355.22 112.662 354.773 112.861C354.325 113.06 353.805 113.159 353.211 113.159C352.433 113.159 351.788 112.99 351.278 112.652C350.767 112.314 350.444 111.82 350.308 111.17L351.422 110.892C351.528 111.303 351.728 111.611 352.023 111.817C352.322 112.022 352.711 112.125 353.192 112.125C353.738 112.125 354.173 112.009 354.494 111.777C354.819 111.542 354.981 111.26 354.981 110.932C354.981 110.667 354.889 110.445 354.703 110.266C354.517 110.083 354.232 109.947 353.848 109.858L352.575 109.56C351.876 109.394 351.362 109.137 351.034 108.789C350.709 108.438 350.547 107.999 350.547 107.472C350.547 107.041 350.668 106.66 350.91 106.328C351.155 105.997 351.488 105.737 351.909 105.548C352.333 105.359 352.814 105.264 353.351 105.264C354.106 105.264 354.7 105.43 355.131 105.761C355.565 106.093 355.873 106.53 356.055 107.074ZM358.816 113.08C358.57 113.08 358.36 112.992 358.184 112.816C358.009 112.64 357.921 112.43 357.921 112.185C357.921 111.939 358.009 111.729 358.184 111.553C358.36 111.378 358.57 111.29 358.816 111.29C359.061 111.29 359.271 111.378 359.447 111.553C359.623 111.729 359.711 111.939 359.711 112.185C359.711 112.347 359.669 112.496 359.586 112.632C359.507 112.768 359.399 112.877 359.263 112.96C359.131 113.04 358.981 113.08 358.816 113.08Z" fill="#4B5653"/>
<rect x="315.1" y="19.1" width="96.8" height="32.8" rx="4.9" fill="#F0FDF4" stroke="black" stroke-width="0.2"/>
<path d="M335.719 33.2536H333.86C333.807 32.9486 333.709 32.6785 333.567 32.4432C333.424 32.2045 333.247 32.0024 333.035 31.8366C332.823 31.6709 332.581 31.5466 332.309 31.4638C332.04 31.3776 331.75 31.3345 331.439 31.3345C330.885 31.3345 330.395 31.4737 329.967 31.7521C329.54 32.0272 329.205 32.4316 328.963 32.9652C328.721 33.4955 328.6 34.1435 328.6 34.9091C328.6 35.688 328.721 36.3442 328.963 36.8778C329.208 37.4081 329.543 37.8092 329.967 38.081C330.395 38.3494 330.884 38.4837 331.434 38.4837C331.739 38.4837 332.024 38.4439 332.289 38.3643C332.558 38.2815 332.798 38.1605 333.01 38.0014C333.225 37.8423 333.406 37.6468 333.552 37.4148C333.701 37.1828 333.804 36.9176 333.86 36.6193L335.719 36.6293C335.65 37.1132 335.499 37.5672 335.267 37.9915C335.038 38.4157 334.738 38.7902 334.367 39.1151C333.996 39.4366 333.562 39.6884 333.065 39.8707C332.567 40.0497 332.016 40.1392 331.409 40.1392C330.514 40.1392 329.715 39.9321 329.013 39.5178C328.31 39.1035 327.757 38.5052 327.352 37.723C326.948 36.9408 326.746 36.0028 326.746 34.9091C326.746 33.812 326.95 32.8741 327.357 32.0952C327.765 31.313 328.32 30.7147 329.023 30.3004C329.725 29.8861 330.521 29.679 331.409 29.679C331.976 29.679 332.503 29.7585 332.99 29.9176C333.477 30.0767 333.911 30.3104 334.293 30.6186C334.674 30.9235 334.987 31.2981 335.232 31.7422C335.481 32.183 335.643 32.6868 335.719 33.2536ZM340.66 40.1491C339.914 40.1491 339.268 39.9851 338.721 39.657C338.174 39.3288 337.75 38.8698 337.448 38.2798C337.15 37.6899 337.001 37.0005 337.001 36.2116C337.001 35.4228 337.15 34.7318 337.448 34.1385C337.75 33.5452 338.174 33.0845 338.721 32.7564C339.268 32.4283 339.914 32.2642 340.66 32.2642C341.406 32.2642 342.052 32.4283 342.599 32.7564C343.146 33.0845 343.568 33.5452 343.867 34.1385C344.168 34.7318 344.319 35.4228 344.319 36.2116C344.319 37.0005 344.168 37.6899 343.867 38.2798C343.568 38.8698 343.146 39.3288 342.599 39.657C342.052 39.9851 341.406 40.1491 340.66 40.1491ZM340.67 38.7074C341.074 38.7074 341.412 38.5964 341.684 38.3743C341.956 38.1489 342.158 37.8473 342.291 37.4695C342.427 37.0916 342.494 36.6707 342.494 36.2067C342.494 35.7393 342.427 35.3168 342.291 34.9389C342.158 34.5578 341.956 34.2545 341.684 34.0291C341.412 33.8037 341.074 33.6911 340.67 33.6911C340.256 33.6911 339.911 33.8037 339.636 34.0291C339.364 34.2545 339.16 34.5578 339.024 34.9389C338.892 35.3168 338.825 35.7393 338.825 36.2067C338.825 36.6707 338.892 37.0916 339.024 37.4695C339.16 37.8473 339.364 38.1489 339.636 38.3743C339.911 38.5964 340.256 38.7074 340.67 38.7074ZM347.646 35.5256V40H345.847V32.3636H347.567V33.6612H347.656C347.832 33.2337 348.112 32.8939 348.496 32.642C348.884 32.3902 349.363 32.2642 349.933 32.2642C350.46 32.2642 350.919 32.3769 351.31 32.6023C351.705 32.8277 352.01 33.1541 352.225 33.5817C352.444 34.0092 352.552 34.5279 352.548 35.1378V40H350.749V35.4162C350.749 34.9058 350.616 34.5064 350.351 34.218C350.089 33.9297 349.726 33.7855 349.262 33.7855C348.947 33.7855 348.667 33.8551 348.422 33.9943C348.18 34.1302 347.989 34.3274 347.85 34.5859C347.714 34.8445 347.646 35.1577 347.646 35.5256ZM356.178 35.5256V40H354.378V32.3636H356.098V33.6612H356.188C356.363 33.2337 356.643 32.8939 357.028 32.642C357.415 32.3902 357.894 32.2642 358.464 32.2642C358.991 32.2642 359.451 32.3769 359.842 32.6023C360.236 32.8277 360.541 33.1541 360.756 33.5817C360.975 34.0092 361.083 34.5279 361.08 35.1378V40H359.28V35.4162C359.28 34.9058 359.147 34.5064 358.882 34.218C358.62 33.9297 358.257 33.7855 357.793 33.7855C357.478 33.7855 357.198 33.8551 356.953 33.9943C356.711 34.1302 356.521 34.3274 356.381 34.5859C356.246 34.8445 356.178 35.1577 356.178 35.5256ZM366.29 40.1491C365.524 40.1491 364.863 39.9901 364.306 39.6719C363.753 39.3504 363.327 38.8963 363.028 38.3097C362.73 37.7197 362.581 37.0253 362.581 36.2266C362.581 35.4411 362.73 34.7517 363.028 34.1584C363.33 33.5618 363.751 33.0978 364.291 32.7663C364.831 32.4316 365.466 32.2642 366.195 32.2642C366.666 32.2642 367.11 32.3404 367.528 32.4929C367.949 32.642 368.32 32.8741 368.641 33.1889C368.966 33.5038 369.221 33.9048 369.407 34.392C369.593 34.8759 369.685 35.4527 369.685 36.1222V36.674H363.426V35.4609H367.96C367.957 35.1162 367.882 34.8097 367.737 34.5412C367.591 34.2694 367.387 34.0556 367.125 33.8999C366.866 33.7441 366.565 33.6662 366.22 33.6662C365.852 33.6662 365.529 33.7557 365.251 33.9347C364.972 34.1103 364.755 34.3423 364.599 34.6307C364.447 34.9157 364.369 35.2289 364.366 35.5703V36.6293C364.366 37.0734 364.447 37.4545 364.609 37.7727C364.772 38.0876 364.999 38.3295 365.29 38.4986C365.582 38.6643 365.924 38.7472 366.315 38.7472C366.576 38.7472 366.813 38.7107 367.026 38.6378C367.238 38.5616 367.422 38.4505 367.577 38.3047C367.733 38.1589 367.851 37.9782 367.93 37.7628L369.611 37.9517C369.505 38.3958 369.303 38.7836 369.004 39.1151C368.709 39.4432 368.331 39.6984 367.871 39.8807C367.41 40.0597 366.883 40.1491 366.29 40.1491ZM374.539 40.1491C373.777 40.1491 373.122 39.9818 372.575 39.647C372.032 39.3123 371.612 38.8499 371.317 38.2599C371.026 37.6667 370.88 36.9839 370.88 36.2116C370.88 35.4361 371.029 34.7517 371.327 34.1584C371.626 33.5618 372.046 33.0978 372.59 32.7663C373.137 32.4316 373.783 32.2642 374.529 32.2642C375.149 32.2642 375.697 32.3786 376.175 32.6072C376.655 32.8326 377.038 33.1525 377.323 33.5668C377.608 33.9777 377.77 34.4583 377.81 35.0085H376.09C376.02 34.6406 375.855 34.334 375.593 34.0888C375.334 33.8402 374.988 33.7159 374.554 33.7159C374.186 33.7159 373.863 33.8153 373.584 34.0142C373.306 34.2098 373.089 34.4915 372.933 34.8594C372.781 35.2273 372.704 35.6681 372.704 36.1818C372.704 36.7022 372.781 37.1496 372.933 37.5241C373.086 37.8954 373.299 38.1821 373.574 38.3842C373.853 38.5831 374.179 38.6825 374.554 38.6825C374.819 38.6825 375.056 38.6328 375.265 38.5334C375.477 38.4306 375.654 38.2831 375.797 38.0909C375.939 37.8987 376.037 37.665 376.09 37.3899H377.81C377.767 37.9302 377.608 38.4091 377.333 38.8267C377.058 39.241 376.683 39.5658 376.209 39.8011C375.735 40.0331 375.179 40.1491 374.539 40.1491ZM383.101 32.3636V33.7557H378.711V32.3636H383.101ZM379.795 30.5341H381.595V37.7031C381.595 37.9451 381.631 38.1307 381.704 38.2599C381.78 38.3859 381.88 38.4721 382.002 38.5185C382.125 38.5649 382.261 38.5881 382.41 38.5881C382.523 38.5881 382.626 38.5798 382.718 38.5632C382.815 38.5466 382.887 38.5317 382.937 38.5185L383.24 39.9254C383.144 39.9586 383.007 39.995 382.828 40.0348C382.652 40.0746 382.437 40.0978 382.181 40.1044C381.731 40.1177 381.325 40.0497 380.963 39.9006C380.602 39.7481 380.315 39.5128 380.103 39.1946C379.895 38.8764 379.792 38.4787 379.795 38.0014V30.5341ZM387.905 40.1491C387.139 40.1491 386.478 39.9901 385.921 39.6719C385.368 39.3504 384.942 38.8963 384.644 38.3097C384.345 37.7197 384.196 37.0253 384.196 36.2266C384.196 35.4411 384.345 34.7517 384.644 34.1584C384.945 33.5618 385.366 33.0978 385.906 32.7663C386.447 32.4316 387.081 32.2642 387.811 32.2642C388.281 32.2642 388.725 32.3404 389.143 32.4929C389.564 32.642 389.935 32.8741 390.257 33.1889C390.581 33.5038 390.837 33.9048 391.022 34.392C391.208 34.8759 391.301 35.4527 391.301 36.1222V36.674H385.041V35.4609H389.575C389.572 35.1162 389.498 34.8097 389.352 34.5412C389.206 34.2694 389.002 34.0556 388.74 33.8999C388.482 33.7441 388.18 33.6662 387.835 33.6662C387.468 33.6662 387.144 33.7557 386.866 33.9347C386.588 34.1103 386.37 34.3423 386.215 34.6307C386.062 34.9157 385.984 35.2289 385.981 35.5703V36.6293C385.981 37.0734 386.062 37.4545 386.225 37.7727C386.387 38.0876 386.614 38.3295 386.906 38.4986C387.197 38.6643 387.539 38.7472 387.93 38.7472C388.192 38.7472 388.429 38.7107 388.641 38.6378C388.853 38.5616 389.037 38.4505 389.193 38.3047C389.348 38.1589 389.466 37.9782 389.546 37.7628L391.226 37.9517C391.12 38.3958 390.918 38.7836 390.619 39.1151C390.325 39.4432 389.947 39.6984 389.486 39.8807C389.025 40.0597 388.498 40.1491 387.905 40.1491ZM395.657 40.1342C395.057 40.1342 394.52 39.9801 394.046 39.6719C393.572 39.3636 393.198 38.9162 392.923 38.3295C392.647 37.7429 392.51 37.0303 392.51 36.1918C392.51 35.3433 392.649 34.6274 392.928 34.044C393.209 33.4574 393.589 33.0149 394.066 32.7166C394.543 32.415 395.075 32.2642 395.662 32.2642C396.109 32.2642 396.477 32.3404 396.766 32.4929C397.054 32.642 397.283 32.8227 397.452 33.0348C397.621 33.2436 397.752 33.4408 397.844 33.6264H397.919V29.8182H399.724V40H397.954V38.7969H397.844C397.752 38.9825 397.617 39.1797 397.442 39.3885C397.266 39.594 397.034 39.7696 396.746 39.9155C396.457 40.0613 396.094 40.1342 395.657 40.1342ZM396.159 38.6577C396.54 38.6577 396.865 38.5549 397.134 38.3494C397.402 38.1406 397.606 37.8506 397.745 37.4794C397.884 37.1082 397.954 36.6757 397.954 36.1818C397.954 35.688 397.884 35.2588 397.745 34.8942C397.609 34.5296 397.407 34.2462 397.138 34.044C396.873 33.8419 396.547 33.7408 396.159 33.7408C395.758 33.7408 395.423 33.8452 395.155 34.054C394.886 34.2628 394.684 34.5511 394.548 34.919C394.412 35.2869 394.344 35.7079 394.344 36.1818C394.344 36.6591 394.412 37.085 394.548 37.4595C394.688 37.8307 394.891 38.1241 395.16 38.3395C395.432 38.5516 395.765 38.6577 396.159 38.6577Z" fill="#16A34A"/>
<g clip-path="url(#clip0_101_65)">
<mask id="mask0_101_65" style="mask-type:luminance" maskUnits="userSpaceOnUse" x="25" y="19" width="32" height="32">
<path d="M57 19H25V51H57V19Z" fill="white"/>
</mask>
<g mask="url(#mask0_101_65)">
<path d="M57 35C57 26.1634 49.8366 19 41 19C32.1634 19 25 26.1634 25 35C25 43.8366 32.1634 51 41 51C49.8366 51 57 43.8366 57 35Z" fill="url(#paint0_linear_101_65)"/>
<g filter="url(#filter0_dd_101_65)">
<path d="M33.196 36.844C33.1604 36.6922 33.3412 36.5966 33.4514 36.7068L39.2934 42.5488C39.4036 42.6591 39.308 42.8398 39.1563 42.8042C36.2082 42.1126 33.8876 39.7921 33.196 36.844Z" fill="url(#paint1_linear_101_65)"/>
<path d="M33.0003 34.502C32.9975 34.5473 33.0145 34.5915 33.0466 34.6236L41.3761 42.9531C41.4081 42.9852 41.4524 43.0022 41.4977 42.9994C41.8768 42.9758 42.2487 42.9258 42.6117 42.8513C42.734 42.8261 42.7765 42.6759 42.6882 42.5875L33.4121 33.3115C33.3238 33.2232 33.1736 33.2657 33.1484 33.388C33.0739 33.751 33.0239 34.1229 33.0003 34.502Z" fill="url(#paint2_linear_101_65)"/>
<path d="M33.6737 31.7525C33.647 31.8123 33.6606 31.8822 33.7069 31.9284L44.0711 42.2926C44.1174 42.3389 44.1872 42.3525 44.247 42.3259C44.5328 42.1986 44.8098 42.055 45.0767 41.8964C45.1651 41.8439 45.1787 41.7225 45.106 41.6499L34.3496 30.8935C34.277 30.8208 34.1556 30.8344 34.1031 30.9228C33.9445 31.1897 33.8009 31.4667 33.6737 31.7525Z" fill="url(#paint3_linear_101_65)"/>
<path d="M35.0253 29.8918C34.9661 29.8326 34.9624 29.7376 35.0182 29.6752C36.4846 28.0335 38.6177 27 40.9922 27C45.4147 27 48.9999 30.5852 48.9999 35.0077C48.9999 37.3822 47.9664 39.5153 46.3247 40.9817C46.2623 41.0375 46.1673 41.0338 46.108 40.9746L35.0253 29.8918Z" fill="url(#paint4_linear_101_65)"/>
</g>
</g>
</g>
<defs>
<filter id="filter0_dd_101_65" x="-38.2872" y="-33.1486" width="158.574" height="158.574" filterUnits="userSpaceOnUse" color-interpolation-filters="sRGB">
<feFlood flood-opacity="0" result="BackgroundImageFix"/>
<feColorMatrix in="SourceAlpha" type="matrix" values="0 0 0 0 0 0 0 0 0 0 0 0 0 0 0 0 0 0 127 0" result="hardAlpha"/>
<feOffset dy="11.1386"/>
<feGaussianBlur stdDeviation="35.6436"/>
<feColorMatrix type="matrix" values="0 0 0 0 0.118924 0 0 0 0 0.158031 0 0 0 0 0.570833 0 0 0 0.7 0"/>
<feBlend mode="normal" in2="BackgroundImageFix" result="effect1_dropShadow_101_65"/>
<feColorMatrix in="SourceAlpha" type="matrix" values="0 0 0 0 0 0 0 0 0 0 0 0 0 0 0 0 0 0 127 0" result="hardAlpha"/>
<feOffset dy="3.89851"/>
<feGaussianBlur stdDeviation="15"/>
<feColorMatrix type="matrix" values="0 0 0 0 0 0 0 0 0 0 0 0 0 0 0 0 0 0 0.17 0"/>
<feBlend mode="normal" in2="effect1_dropShadow_101_65" result="effect2_dropShadow_101_65"/>
<feBlend mode="normal" in="SourceGraphic" in2="effect2_dropShadow_101_65" result="shape"/>
</filter>
<linearGradient id="paint0_linear_101_65" x1="41" y1="19" x2="41" y2="51" gradientUnits="userSpaceOnUse">
<stop stop-color="#5C6BF1"/>
<stop offset="1" stop-color="#283188"/>
</linearGradient>
<linearGradient id="paint1_linear_101_65" x1="33.5714" y1="28.4861" x2="41.9142" y2="40.7146" gradientUnits="userSpaceOnUse">
<stop stop-color="white"/>
<stop offset="1" stop-color="white" stop-opacity="0.65"/>
</linearGradient>
<linearGradient id="paint2_linear_101_65" x1="33.5714" y1="28.4855" x2="41.9143" y2="40.714" gradientUnits="userSpaceOnUse">
<stop stop-color="white"/>
<stop offset="1" stop-color="white" stop-opacity="0.65"/>
</linearGradient>
<linearGradient id="paint3_linear_101_65" x1="33.5714" y1="28.4853" x2="41.9142" y2="40.7139" gradientUnits="userSpaceOnUse">
<stop stop-color="white"/>
<stop offset="1" stop-color="white" stop-opacity="0.65"/>
</linearGradient>
<linearGradient id="paint4_linear_101_65" x1="33.5713" y1="28.4857" x2="41.9142" y2="40.7143" gradientUnits="userSpaceOnUse">
<stop stop-color="white"/>
<stop offset="1" stop-color="white" stop-opacity="0.65"/>
</linearGradient>
<clipPath id="clip0_101_65">
<rect width="32" height="32" fill="white" transform="translate(25 19)"/>
</clipPath>
</defs>
</svg>
