<svg width="58" height="102" viewBox="0 0 58 102" fill="none" xmlns="http://www.w3.org/2000/svg">
<path d="M17.5464 43.6875C21.5477 43.6875 25.8612 43.0125 30.431 42.725C32.7837 42.544 35.1447 42.544 37.4974 42.725C38.7199 42.8261 39.9366 43.0013 41.1421 43.25L42.0561 43.4375C42.3793 43.5375 42.7025 43.6125 43.0258 43.725C43.6646 43.9146 44.2934 44.1441 44.9094 44.4125C48.5353 45.8716 51.7324 48.4234 54.1493 51.7875C55.2299 53.3827 56.0557 55.1759 56.5902 57.0875C57.1446 59.0705 57.297 61.1675 57.0361 63.225C56.9064 64.2336 56.6899 65.2257 56.3896 66.1875C56.0651 67.0867 55.6929 67.9632 55.275 68.8125C54.4344 70.3898 53.4071 71.8321 52.2211 73.1C49.9758 75.4561 47.4001 77.3818 44.5973 78.8C41.9246 80.1923 39.1357 81.2851 36.2714 82.0625C31.2706 83.3986 26.1419 84.0368 21.0016 83.9625C14.5082 83.9368 8.06634 82.6685 1.95335 80.2125C0.114291 79.2375 0.470959 78.9625 2.26544 78.6625C5.09136 78.2799 7.94496 78.2254 10.7809 78.5C12.3524 78.65 13.924 78.7375 15.4844 78.775C17.0448 78.8125 18.5941 78.9125 20.1434 78.9C23.2153 78.911 26.2829 78.6434 29.3164 78.1C32.3131 77.5684 35.2603 76.7316 38.1216 75.6C40.9241 74.5046 43.5908 73.0134 46.0574 71.1625C47.4351 70.0983 48.638 68.7746 49.6129 67.25C50.5221 65.8923 51.0915 64.287 51.2625 62.6C51.5189 59.4875 49.691 56.35 47.0605 54.1125C45.6069 52.8611 43.9647 51.9127 42.2121 51.3125C41.7886 51.15 41.3427 51.0875 40.908 50.9375C40.4734 50.7875 39.9495 50.75 39.4702 50.65C38.48 50.4884 37.483 50.3841 36.4831 50.3375C32.2239 50.2782 27.9664 50.5623 23.7435 51.1875C20.9489 51.5263 18.139 51.6808 15.3284 51.65C13.8628 51.6069 12.4005 51.4734 10.948 51.25C9.31797 50.9644 7.74947 50.3413 6.32252 49.4125C5.11364 48.677 4.06185 47.6554 3.24004 46.4186C2.41824 45.1819 1.84609 43.7595 1.56325 42.25C1.11604 39.3062 1.71197 36.283 3.22398 33.825C3.86797 32.7467 4.59125 31.7306 5.38627 30.7875C6.1473 29.8856 6.95095 29.0302 7.79377 28.225C8.62454 27.4335 9.49137 26.6908 10.3908 26C10.8366 25.65 11.2824 25.2875 11.7394 24.9625L13.1215 24.0375C18.8544 20.1701 25.2947 17.8109 31.9579 17.1375C33.4397 16.9807 34.9288 16.9306 36.4163 16.9875C37.5964 17.0945 38.7691 17.2866 39.9272 17.5625C40.6948 17.7961 41.4411 18.11 42.1564 18.5C42.6624 18.7515 43.111 19.1285 43.4682 19.6027C43.8254 20.0769 44.0819 20.6359 44.2184 21.2375C44.367 21.7366 44.4678 22.252 44.5193 22.775C44.5193 23.575 43.9063 24.1 42.9254 24.35C42.3458 24.4793 41.7553 24.538 41.1644 24.525C40.4002 24.5922 39.6325 24.5922 38.8684 24.525C36.3235 24.4168 33.7752 24.5716 31.2557 24.9875C28.7141 25.4595 26.2123 26.1703 23.7769 27.1125C21.3613 28.1123 19.0362 29.3679 16.833 30.8625C14.6837 32.2527 12.7242 33.9829 11.0149 36C10.7028 36.3375 10.4799 36.7375 10.1901 37.1L9.78888 37.65L9.51023 38.1C9.19391 38.5754 8.95263 39.1081 8.7969 39.675C8.68499 40.01 8.65423 40.3723 8.70773 40.725C8.74198 41.0489 8.86238 41.3538 9.05325 41.6C9.34974 41.9886 9.70898 42.3109 10.1121 42.55C10.6665 42.865 11.2603 43.0841 11.8731 43.2C12.3003 43.2922 12.7321 43.3548 13.1661 43.3875C13.623 43.4625 14.1023 43.4875 14.5816 43.5125C15.5401 43.5875 16.5321 43.5125 17.5352 43.5125L17.5464 43.6875Z" fill="#8066FA"/>
<path d="M20.2104 63.3625C19.6532 58.2875 18.9733 53.2125 18.2599 48.15C18.0036 46.3 17.5689 44.4875 17.3014 42.6375C16.4209 36.1125 15.44 29.5875 14.2363 23.1125C13.679 20.2625 13.1217 17.3875 12.3415 14.6125C11.8957 12.8125 11.3607 11.05 10.8925 9.2625C10.4244 7.475 10.0009 5.7 9.71108 3.85C9.53274 2.6875 10.4801 2.4375 11.7173 2.9875C13.3337 3.73126 14.6314 5.14638 15.3397 6.9375C16.6772 10.5625 17.8587 14.2125 18.8618 17.925C19.8003 21.673 20.5005 25.4909 20.9572 29.35C21.2633 31.6908 21.6837 34.011 22.2167 36.3C22.696 38.625 23.231 40.95 23.6657 43.275C24.1003 45.775 24.5573 48.4125 24.9363 50.9875L26.0509 58.7375L27.2658 68.3C27.5778 70.7125 27.8676 73.1375 28.1128 75.5625C28.3581 77.9875 28.659 80.4 28.9376 82.8125C29.1828 84.675 29.5061 86.5625 29.7847 88.375C30.1185 90.2262 30.3677 92.0953 30.5315 93.975C30.5315 94.8125 30.6652 95.625 30.6764 96.475C30.713 97.6306 30.5148 98.7805 30.0968 99.8375C29.7845 100.506 29.253 101.012 28.6144 101.25C28.3185 101.4 28.013 101.526 27.7004 101.625C26.7085 101.85 25.8391 100.562 25.2595 98.45C23.3759 92.2 22.8632 85.4875 21.9938 78.675C21.3696 73.675 20.8123 68.5 20.0767 63.4L20.2104 63.3625Z" fill="#8066FA"/>
<path d="M36.8843 37.525C36.9809 42.4 37.1853 47.2792 37.4973 52.1625C37.5976 53.9375 37.932 55.6875 38.0435 57.4625C38.233 60.6 38.5339 63.7125 38.7568 66.875C38.9797 70.0375 39.2361 73.125 39.6262 76.275C39.9696 79.0375 40.4383 81.7785 41.0306 84.4875C41.3761 86.2125 41.8665 87.9 42.2343 89.625C42.5919 91.3604 42.8599 93.1175 43.0368 94.8875C43.126 96 42.2343 96.1375 41.064 95.5875C39.5328 94.7941 38.315 93.3972 37.6422 91.6625C35.5771 84.5543 34.2567 77.2006 33.7077 69.75C33.5071 67.525 33.3065 65.275 32.9944 63.0125C32.6823 60.75 32.4037 58.5 32.1808 56.25C31.7238 51.25 31.4229 46.25 31.1776 41.25C31.0773 39.7125 31.055 38.1625 30.9993 36.625C30.9436 35.0875 30.8433 33.575 30.8433 32.0375C30.7652 27.375 30.8433 22.6875 30.8433 18.0375C30.8433 16.2375 30.8433 14.45 30.8433 12.65C30.8433 10.85 30.8433 9.075 30.9547 7.25C30.9547 6.4625 31.0105 5.675 31.0885 4.875C31.4897 1.8875 32.0359 0.975001 33.2062 0.625001C33.4725 0.529424 33.7444 0.454251 34.0198 0.400002C34.8892 0.400002 35.4131 1.65 35.4465 3.7125C35.5468 6.7875 35.7251 9.9625 35.9258 13.1375C35.9815 14.725 36.1598 16.35 36.2379 17.975V20.475L36.3493 22.975C36.4831 27.825 36.8397 32.725 36.9958 37.625L36.8843 37.525Z" fill="#8066FA"/>
</svg>
