<svg width="352" height="100" viewBox="0 0 352 100" fill="none" xmlns="http://www.w3.org/2000/svg">
<path d="M126.8 71.896C120.464 71.896 116.112 68.12 116.112 62.808C116.112 56.664 120.336 53.784 126.8 52.696L135.504 51.16C136.72 50.968 137.36 50.392 137.36 49.496V49.048C137.36 46.04 134.608 43.672 130.768 43.672C127.44 43.672 124.624 45.272 123.792 48.216H117.2C118.096 42.584 123.28 38.104 130.96 38.104C138.768 38.104 144.144 42.264 144.144 48.792V71H138V69.528C138 68.248 138.192 67.16 138.704 65.944L139.152 64.92L139.088 64.856L138 66.584C135.696 70.232 131.024 71.896 126.8 71.896ZM128.528 66.776C133.072 66.776 137.36 64.024 137.36 60.056V55.384L128.272 56.984C124.496 57.688 122.576 59.224 122.576 62.36C122.576 64.984 125.072 66.776 128.528 66.776ZM158.178 71H151.714V26.2H158.178V71ZM172.178 71H165.714V26.2H172.178V71ZM193.091 71.896C184.131 71.896 177.859 65.24 177.859 55.768V54.104C177.859 45.016 184.323 38.104 193.091 38.104C201.987 38.104 208.323 44.76 208.323 54.104V55.768C208.323 65.304 202.179 71.896 193.091 71.896ZM193.091 66.84C198.275 66.84 201.731 62.232 201.731 56.472V53.528C201.731 47.768 198.275 43.096 193.155 43.096C187.971 43.096 184.451 47.768 184.451 53.528V56.472C184.451 62.232 187.907 66.84 193.091 66.84ZM227.657 71.896C218.697 71.896 212.297 65.24 212.297 55.832V54.04C212.297 44.952 218.889 38.104 227.657 38.104C236.041 38.104 242.121 43.416 242.441 50.904H235.913C235.657 46.104 231.945 43.096 227.721 43.096C222.793 43.096 218.889 47.32 218.889 53.464V56.6C218.889 62.616 222.729 66.84 227.657 66.84C231.945 66.84 235.657 63.832 235.913 59.032H242.441C242.121 66.712 236.169 71.896 227.657 71.896ZM257.05 71.896C250.714 71.896 246.362 68.12 246.362 62.808C246.362 56.664 250.586 53.784 257.05 52.696L265.754 51.16C266.97 50.968 267.61 50.392 267.61 49.496V49.048C267.61 46.04 264.858 43.672 261.018 43.672C257.69 43.672 254.874 45.272 254.042 48.216H247.45C248.346 42.584 253.53 38.104 261.21 38.104C269.018 38.104 274.394 42.264 274.394 48.792V71H268.25V69.528C268.25 68.248 268.442 67.16 268.954 65.944L269.402 64.92L269.338 64.856L268.25 66.584C265.946 70.232 261.274 71.896 257.05 71.896ZM258.778 66.776C263.322 66.776 267.61 64.024 267.61 60.056V55.384L258.522 56.984C254.746 57.688 252.826 59.224 252.826 62.36C252.826 64.984 255.322 66.776 258.778 66.776ZM297.781 66.2V71.448C292.725 72.408 288.373 71.64 286.197 69.528C284.469 67.864 283.701 65.688 283.701 62.488V44.632H278.645V39H281.653C283.253 39 283.765 38.168 283.765 36.632V31.704L290.293 29.912V36.312C290.293 37.72 289.653 38.552 288.885 38.872V39H297.525V44.632H290.293V61.208C290.293 65.56 292.725 66.776 297.781 66.2ZM315.593 71.896C306.569 71.896 300.297 65.24 300.297 55.832V54.04C300.297 44.952 306.76 38.104 315.593 38.104C324.553 38.104 330.825 44.696 330.825 54.04V56.216H306.889V56.728C306.889 62.488 310.409 66.84 315.593 66.84C319.305 66.84 322.377 64.472 323.721 60.44H330.249C328.649 67.48 323.081 71.896 315.593 71.896ZM306.953 51.736H324.233C323.529 46.616 320.073 43.096 315.657 43.096C311.177 43.096 307.657 46.552 306.953 51.736Z" fill="black"/>
<path d="M22 50V78H50M50 22H78V50" stroke="url(#paint0_linear_78_13)" stroke-width="8"/>
<path d="M30 50L30 30H50M50 70H70V50" stroke="url(#paint1_linear_78_13)" stroke-width="8"/>
<rect x="34" y="66" width="16" height="16" transform="rotate(-90 34 66)" fill="url(#paint2_linear_78_13)"/>
<rect x="50" y="50" width="16" height="16" transform="rotate(-90 50 50)" fill="url(#paint3_linear_78_13)"/>
<defs>
<linearGradient id="paint0_linear_78_13" x1="20" y1="50" x2="80" y2="50" gradientUnits="userSpaceOnUse">
<stop/>
<stop offset="0.640697"/>
</linearGradient>
<linearGradient id="paint1_linear_78_13" x1="29.8995" y1="50.1006" x2="69.8995" y2="50.1006" gradientUnits="userSpaceOnUse">
<stop/>
</linearGradient>
<linearGradient id="paint2_linear_78_13" x1="41.4667" y1="67.3333" x2="40.5333" y2="83.8667" gradientUnits="userSpaceOnUse">
<stop/>
</linearGradient>
<linearGradient id="paint3_linear_78_13" x1="57.4667" y1="51.3333" x2="56.5333" y2="67.8667" gradientUnits="userSpaceOnUse">
<stop/>
</linearGradient>
</defs>
</svg>
