<svg width="132" height="28" viewBox="0 0 132 28" fill="none" xmlns="http://www.w3.org/2000/svg">
<path d="M23.184 18.504C23.616 18.504 23.832 19.056 23.832 20.16C23.832 20.76 23.58 21.492 23.076 22.356C22.572 23.196 21.912 23.976 21.096 24.696C20.304 25.392 19.416 25.968 18.432 26.424C17.448 26.88 16.488 27.108 15.552 27.108C14.28 27.108 13.428 25.992 12.996 23.76C12.372 24.792 11.556 25.644 10.548 26.316C9.54 26.964 8.184 27.288 6.48 27.288C4.8 27.288 3.444 26.76 2.412 25.704C1.38 24.648 0.876 23.364 0.9 21.852C0.9 17.772 2.256 14.556 4.968 12.204C6.12 11.22 7.188 10.572 8.172 10.26C9.18 9.948 10.236 9.792 11.34 9.792C12.444 9.792 13.344 9.984 14.04 10.368C14.376 9.672 14.76 9.324 15.192 9.324C16.032 9.324 16.824 9.696 17.568 10.44C18.336 11.16 18.72 11.844 18.72 12.492C18.384 13.284 17.892 14.232 17.244 15.336C17.052 16.44 16.956 17.988 16.956 19.98C16.956 21.972 17.208 22.968 17.712 22.968C18.336 22.968 19.848 21.72 22.248 19.224C22.68 18.744 22.992 18.504 23.184 18.504ZM6.192 20.664C6.192 22.512 6.876 23.436 8.244 23.436C9.708 23.412 10.92 22.632 11.88 21.096C12.216 20.568 12.492 19.92 12.708 19.152C12.708 16.464 12.948 14.16 13.428 12.24C11.484 12.624 9.792 13.56 8.352 15.048C6.912 16.536 6.192 18.408 6.192 20.664ZM30.0611 27.108C26.6291 27.132 24.2891 25.848 23.0411 23.256C22.6091 22.344 22.3931 21.204 22.3931 19.836C22.3931 18.444 22.5131 16.968 22.7531 15.408C23.2331 12.288 24.1571 9.408 25.5251 6.768C26.2211 5.424 27.0011 4.272 27.8651 3.312C29.7611 1.2 31.8731 0.155998 34.2011 0.179998C35.2331 0.179998 36.0371 0.467998 36.6131 1.044C37.2131 1.596 37.5131 2.4 37.5131 3.456C37.5131 4.512 37.2011 5.58 36.5771 6.66C35.9531 7.716 35.1491 8.82 34.1651 9.972C33.2051 11.1 32.1371 12.288 30.9611 13.536C29.7851 14.784 28.6331 16.14 27.5051 17.604V19.044C27.5051 20.388 27.7931 21.372 28.3691 21.996C28.9451 22.62 29.6171 22.932 30.3851 22.932C32.4491 22.932 34.2731 21.912 35.8571 19.872C36.5051 19.032 36.9971 18.612 37.3331 18.612C37.6691 18.612 37.8371 19.02 37.8371 19.836C37.8371 20.652 37.6091 21.492 37.1531 22.356C36.7211 23.196 36.1451 23.976 35.4251 24.696C34.7051 25.392 33.8771 25.968 32.9411 26.424C32.0051 26.88 31.0451 27.108 30.0611 27.108ZM32.0051 7.776C32.5091 7.152 32.9051 6.588 33.1931 6.084C33.4811 5.58 33.6251 5.064 33.6251 4.536C33.6251 3.984 33.4331 3.708 33.0491 3.708C32.2091 3.708 31.2731 4.572 30.2411 6.3C29.2331 8.028 28.4771 10.296 27.9731 13.104C28.7891 11.856 29.5331 10.812 30.2051 9.972C30.9011 9.132 31.5011 8.4 32.0051 7.776ZM43.7369 27.108C40.3049 27.132 37.9649 25.848 36.7169 23.256C36.2849 22.344 36.0689 21.204 36.0689 19.836C36.0689 18.444 36.1889 16.968 36.4289 15.408C36.9089 12.288 37.8329 9.408 39.2009 6.768C39.8969 5.424 40.6769 4.272 41.5409 3.312C43.4369 1.2 45.5489 0.155998 47.8769 0.179998C48.9089 0.179998 49.7129 0.467998 50.2889 1.044C50.8889 1.596 51.1889 2.4 51.1889 3.456C51.1889 4.512 50.8769 5.58 50.2529 6.66C49.6289 7.716 48.8249 8.82 47.8409 9.972C46.8809 11.1 45.8129 12.288 44.6369 13.536C43.4609 14.784 42.3089 16.14 41.1809 17.604V19.044C41.1809 20.388 41.4689 21.372 42.0449 21.996C42.6209 22.62 43.2929 22.932 44.0609 22.932C46.1249 22.932 47.9489 21.912 49.5329 19.872C50.1809 19.032 50.6729 18.612 51.0089 18.612C51.3449 18.612 51.5129 19.02 51.5129 19.836C51.5129 20.652 51.2849 21.492 50.8289 22.356C50.3969 23.196 49.8209 23.976 49.1009 24.696C48.3809 25.392 47.5529 25.968 46.6169 26.424C45.6809 26.88 44.7209 27.108 43.7369 27.108ZM45.6809 7.776C46.1849 7.152 46.5809 6.588 46.8689 6.084C47.1569 5.58 47.3009 5.064 47.3009 4.536C47.3009 3.984 47.1089 3.708 46.7249 3.708C45.8849 3.708 44.9489 4.572 43.9169 6.3C42.9089 8.028 42.1529 10.296 41.6489 13.104C42.4649 11.856 43.2089 10.812 43.8809 9.972C44.5769 9.132 45.1769 8.4 45.6809 7.776ZM63.9287 23.94C62.0327 26.172 59.7527 27.288 57.0887 27.288C54.4487 27.288 52.4687 26.616 51.1487 25.272C49.8287 23.904 49.1807 22.212 49.2047 20.196C49.1807 17.34 50.0807 14.88 51.9047 12.816C53.7287 10.752 56.1167 9.72 59.0687 9.72C60.4127 9.72 61.4927 9.888 62.3087 10.224C63.7247 10.8 64.4327 11.34 64.4327 11.844C64.4327 12.228 63.4367 12.432 61.4447 12.456C59.4767 12.456 57.8207 13.14 56.4767 14.508C55.1567 15.852 54.4967 17.556 54.4967 19.62C54.4967 20.7 54.8087 21.612 55.4327 22.356C56.0807 23.076 56.9807 23.436 58.1327 23.436C59.3087 23.436 60.2807 23.196 61.0487 22.716C59.3447 21.564 58.4927 19.896 58.4927 17.712C58.4687 16.56 58.8767 15.516 59.7167 14.58C60.5807 13.62 61.6727 13.14 62.9927 13.14C64.3367 13.116 65.2967 13.476 65.8727 14.22C66.4487 14.964 66.7367 15.924 66.7367 17.1C66.7367 18.252 66.4607 19.476 65.9087 20.772H66.1247C67.1807 20.748 68.0927 20.376 68.8607 19.656C69.1487 19.368 69.3887 19.116 69.5807 18.9C69.7967 18.684 70.0127 18.576 70.2287 18.576C70.5647 18.576 70.7327 18.972 70.7327 19.764C70.7327 21.228 70.3007 22.332 69.4367 23.076C68.5727 23.796 67.6127 24.156 66.5567 24.156C65.5247 24.156 64.6487 24.084 63.9287 23.94ZM63.6047 19.764C64.0127 18.9 64.2167 18.06 64.2167 17.244C64.2167 16.428 63.9527 16.02 63.4247 16.02C63.2087 16.02 63.0287 16.176 62.8847 16.488C62.7407 16.8 62.6687 17.1 62.6687 17.388C62.6687 18.348 62.9807 19.14 63.6047 19.764ZM83.2236 18.504C83.6556 18.504 83.8716 18.876 83.8716 19.62C83.8716 20.34 83.6796 21.12 83.2956 21.96C82.9356 22.8 82.3716 23.616 81.6036 24.408C80.8596 25.176 79.8996 25.836 78.7236 26.388C77.5476 26.94 76.1556 27.216 74.5476 27.216C72.9636 27.216 71.5716 26.748 70.3716 25.812C69.1716 24.852 68.5716 23.484 68.5716 21.708C68.5716 19.908 68.8476 18.288 69.3996 16.848C69.9756 15.384 70.7196 14.124 71.6316 13.068C72.5676 12.012 73.6236 11.196 74.7996 10.62C75.9756 10.02 77.0916 9.72 78.1476 9.72C79.9956 9.72 80.9196 10.452 80.9196 11.916C80.9196 12.756 80.7396 13.428 80.3796 13.932C80.0436 14.436 79.6956 14.688 79.3356 14.688C78.8556 14.688 78.4356 14.52 78.0756 14.184C77.7156 13.848 77.3196 13.68 76.8876 13.68C76.4556 13.656 76.0356 13.86 75.6276 14.292C75.2436 14.724 74.9196 15.276 74.6556 15.948C74.1276 17.292 73.8636 18.864 73.8636 20.664C73.8876 21.528 74.2836 22.176 75.0516 22.608C75.5796 22.896 76.2036 23.052 76.9236 23.076C77.6436 23.076 78.3276 22.836 78.9756 22.356C79.6476 21.876 80.2596 21.36 80.8116 20.808C81.3636 20.232 81.8436 19.704 82.2516 19.224C82.6836 18.744 83.0076 18.504 83.2236 18.504ZM104.184 18.504C104.616 18.504 104.832 19.056 104.832 20.16C104.832 20.76 104.58 21.492 104.076 22.356C103.572 23.196 102.912 23.976 102.096 24.696C101.304 25.392 100.416 25.968 99.432 26.424C98.448 26.88 97.488 27.108 96.552 27.108C95.28 27.108 94.428 25.992 93.996 23.76C93.372 24.792 92.556 25.644 91.548 26.316C90.54 26.964 89.184 27.288 87.48 27.288C85.8 27.288 84.444 26.76 83.412 25.704C82.38 24.648 81.876 23.364 81.9 21.852C81.9 17.772 83.256 14.556 85.968 12.204C87.12 11.22 88.188 10.572 89.172 10.26C90.18 9.948 91.236 9.792 92.34 9.792C93.444 9.792 94.344 9.984 95.04 10.368C95.376 9.672 95.76 9.324 96.192 9.324C97.032 9.324 97.824 9.696 98.568 10.44C99.336 11.16 99.72 11.844 99.72 12.492C99.384 13.284 98.892 14.232 98.244 15.336C98.052 16.44 97.956 17.988 97.956 19.98C97.956 21.972 98.208 22.968 98.712 22.968C99.336 22.968 100.848 21.72 103.248 19.224C103.68 18.744 103.992 18.504 104.184 18.504ZM87.192 20.664C87.192 22.512 87.876 23.436 89.244 23.436C90.708 23.412 91.92 22.632 92.88 21.096C93.216 20.568 93.492 19.92 93.708 19.152C93.708 16.464 93.948 14.16 94.428 12.24C92.484 12.624 90.792 13.56 89.352 15.048C87.912 16.536 87.192 18.408 87.192 20.664ZM104.617 25.056C104.353 24.408 104.161 23.664 104.041 22.824C103.921 21.96 103.861 20.76 103.861 19.224C103.861 17.688 104.149 15.612 104.725 12.996H103.105C102.817 12.996 102.673 12.876 102.673 12.636C102.673 12.06 102.721 11.592 102.817 11.232C102.937 10.848 103.201 10.416 103.609 9.936H104.473C104.809 9.936 105.169 9.924 105.553 9.9C106.705 6.204 107.881 4.356 109.081 4.356C110.041 4.38 110.713 4.992 111.097 6.192C111.193 6.528 111.301 6.888 111.421 7.272L109.945 9.864C111.625 9.912 112.681 9.936 113.113 9.936C113.569 9.936 113.809 9.984 113.833 10.08C113.881 10.152 113.905 10.272 113.905 10.44C113.905 10.872 113.797 11.412 113.581 12.06C113.389 12.708 113.161 13.02 112.897 12.996L109.297 12.816C108.793 15.744 108.541 18.168 108.541 20.088C108.541 22.008 108.817 22.968 109.369 22.968C109.825 22.968 110.653 22.596 111.853 21.852C113.053 21.084 113.917 20.352 114.445 19.656C114.973 18.96 115.405 18.612 115.741 18.612C116.077 18.612 116.245 19.02 116.245 19.836C116.245 20.652 115.957 21.492 115.381 22.356C114.805 23.196 114.073 23.976 113.185 24.696C112.321 25.392 111.349 25.968 110.269 26.424C109.213 26.88 108.289 27.108 107.497 27.108C106.705 27.108 106.093 26.928 105.661 26.568C105.253 26.184 104.905 25.68 104.617 25.056ZM122.847 23.076C124.719 23.076 126.531 22.332 128.283 20.844C128.931 20.292 129.459 19.788 129.867 19.332C130.275 18.852 130.587 18.612 130.803 18.612C131.139 18.612 131.307 18.948 131.307 19.62C131.307 20.292 131.127 21.048 130.767 21.888C130.407 22.704 129.807 23.508 128.967 24.3C126.903 26.244 124.071 27.216 120.471 27.216C117.615 27.216 115.671 26.184 114.639 24.12C114.279 23.4 114.099 22.368 114.099 21.024C114.099 19.68 114.363 18.288 114.891 16.848C115.419 15.384 116.115 14.124 116.979 13.068C117.867 12.012 118.887 11.196 120.039 10.62C121.191 10.02 122.415 9.72 123.711 9.72C125.031 9.72 126.039 10.044 126.735 10.692C127.455 11.34 127.815 12.18 127.815 13.212C127.815 14.244 127.551 15.096 127.023 15.768C126.519 16.416 125.859 16.968 125.043 17.424C124.227 17.856 123.315 18.252 122.307 18.612C121.323 18.948 120.351 19.332 119.391 19.764V20.664C119.415 21.528 119.775 22.14 120.471 22.5C121.167 22.86 121.959 23.052 122.847 23.076ZM122.235 12.924C120.987 12.924 120.123 14.376 119.643 17.28C120.147 16.944 120.615 16.644 121.047 16.38C121.503 16.116 121.899 15.864 122.235 15.624C122.955 15.096 123.327 14.496 123.351 13.824C123.351 13.224 122.979 12.924 122.235 12.924Z" fill="black"/>
</svg>
