<svg width="159" height="96" viewBox="0 0 159 96" fill="none" xmlns="http://www.w3.org/2000/svg">
<g clip-path="url(#clip0_23_1461)">
<path d="M140.936 52.8229C138.675 52.0984 132.982 50.3648 125.442 48.3397C121.692 47.3376 117.456 46.2277 112.998 45.1259C108.54 44.024 104.005 42.7413 99.3948 41.6001C90.1723 39.2955 80.9063 37.2255 73.5371 35.799C66.168 34.3726 60.7447 33.5611 59.0771 33.3572L56.4924 33.0342L54.7818 32.8453C54.6543 32.832 54.3172 32.7994 54.3911 32.7967C54.3519 32.779 54.3064 32.767 54.2583 32.7618C54.2101 32.7565 54.1605 32.7581 54.1135 32.7665C53.9988 32.8065 54.0733 32.8844 54.16 32.935C53.9436 32.8488 54.931 33.3014 55.3041 33.4715L56.792 34.1076C56.9692 34.1728 58.9726 35.0679 62.1151 36.3743C65.2576 37.6806 69.4901 39.4268 74.0184 41.1623C83.0583 44.616 92.7198 48.4996 95.7023 49.8386C96.0754 50.0088 97.6704 50.6768 100.15 51.81C101.385 52.3611 102.848 53.0518 104.485 53.8437L107.055 55.1305L108.37 55.8265C108.857 56.0956 109.214 56.2484 110.105 56.7806C111.68 57.6594 113.164 58.5961 114.547 59.5856C115.189 60.0775 116.019 60.5851 116.528 61.0773L118.108 62.5702C118.572 63.0552 118.857 63.5332 119.224 64.0172C119.592 64.5012 119.751 64.9882 120.011 65.4402C120.139 65.6567 120.189 65.8868 120.16 66.1158L120.181 66.7781C120.155 66.991 120.094 67.2019 119.999 67.4075C119.945 67.6299 119.844 67.8473 119.7 68.0545C119.294 68.4542 118.675 68.7592 117.946 68.9201C117.29 69.0812 116.602 69.189 115.9 69.2406C114.023 69.3739 112.121 69.297 110.29 69.0138C107.844 68.667 105.431 68.24 103.061 67.7346L99.3084 66.9298L96.8389 66.3472C84.5057 63.4296 72.2099 60.291 62.2656 57.8916C52.3213 55.4922 44.6259 53.8446 41.9004 53.3744C39.9668 53.0323 35.9527 52.2145 30.8577 51.3463L27.5727 50.771C26.8035 50.6465 25.9746 50.5197 25.0967 50.4216C23.195 50.1287 21.2074 50.1027 19.2864 50.3455C18.7992 50.4346 18.3526 50.5903 17.9812 50.8005C17.8016 50.9004 17.667 51.0262 17.5901 51.1661C17.5131 51.3061 17.4963 51.4555 17.5413 51.6004C17.7813 52.1409 18.2525 52.6337 18.9077 53.0294C20.2568 53.7907 21.7106 54.4814 23.2535 55.0941L25.5064 56.1101L28.3233 57.2759L32.318 59.0934C32.5741 59.1905 32.7929 59.3195 32.9596 59.4719C33.1263 59.6242 33.2371 59.7963 33.2845 59.9767C33.3319 60.157 33.3149 60.3414 33.2346 60.5174C33.1543 60.6934 33.0126 60.857 32.8189 60.9973C32.5 61.2566 32.0477 61.4448 31.5328 61.5324C31.0178 61.62 30.4693 61.602 29.9731 61.4812C27.7573 60.764 25.2751 60.1282 23.003 59.2921L21.0504 58.6102C20.2121 58.3135 19.376 58.0392 18.519 57.7029C16.843 57.0952 15.2281 56.4281 13.6827 55.7052C11.1248 54.5627 9.07363 53.0566 7.71123 51.3205C7.07181 50.5435 6.89969 49.6565 7.22433 48.8113C7.76494 47.9384 8.81034 47.2131 10.1675 46.7692C12.8377 45.9147 15.8441 45.5176 18.8613 45.6208C21.1532 45.6397 23.4368 45.791 25.6809 46.0726C26.9021 46.1896 28.1586 46.3636 29.4769 46.5623L32.4324 47.0331C39.8639 48.2646 47.9318 50.0018 55.4694 51.7044C70.5844 55.2112 83.7941 58.5854 84.874 58.7747C89.9571 59.9704 95.0462 61.1525 100.123 62.2812C101.701 62.6317 101.911 62.651 102.518 62.7858L104.194 63.079C105.192 63.2701 106.229 63.3788 107.276 63.4018C107.448 63.3418 107.806 63.3558 107.85 63.2018C107.804 63.0393 107.724 62.881 107.61 62.7312C107.381 62.4269 107.104 62.1368 106.782 61.8651C106.184 61.387 105.511 60.9448 104.773 60.5446L104.045 60.1633L102.672 59.4872C101.356 58.7912 100.006 58.1995 98.6518 57.5631C95.9 56.3053 93.0213 55.1149 90.1282 53.9294C84.293 51.5872 78.2841 49.3633 72.1974 47.178C66.5367 45.0982 60.7211 43.1764 54.8408 41.127C53.3949 40.6149 51.9324 40.0855 50.4677 39.5338C49.7116 39.2431 49.104 39.0276 48.0984 38.6161C47.0929 38.2045 46.3616 37.9398 44.9416 37.3147L43.1048 36.4539L41.5941 35.514L40.8572 35.0434L40.3686 34.5325C40.0044 34.2216 39.6884 33.8911 39.4246 33.5452C38.3525 32.2064 38.142 30.6749 38.8341 29.2477C39.4137 28.2202 40.5387 27.3369 42.0347 26.7348C43.5776 26.1216 45.328 25.7245 47.1579 25.5725L48.7122 25.4579C49.2441 25.4342 49.8174 25.4537 50.3741 25.4559C51.5157 25.4671 52.6553 25.5171 53.7875 25.6055C54.8563 25.6833 55.8761 25.7897 56.8053 25.8815L58.7648 26.1106C63.7365 26.7866 68.6363 27.6428 73.4374 28.6747C82.8815 30.6711 91.9645 32.9897 100.95 35.4463C106.104 36.8365 111.19 38.2815 116.207 39.7812C121.153 41.394 126.059 43.0442 130.891 44.7776C136.58 46.8474 142.121 49.0614 147.59 51.3811C150.504 52.5428 152.911 54.1125 154.604 55.9565C155.283 56.6666 152.825 55.8955 149.62 55.0843C146.416 54.273 142.52 53.2986 140.936 52.8229Z" fill="#8066FA"/>
</g>
<defs>
<clipPath id="clip0_23_1461">
<rect width="159" height="96" fill="white"/>
</clipPath>
</defs>
</svg>
