<svg width="80" height="70" viewBox="0 0 80 70" fill="none" xmlns="http://www.w3.org/2000/svg">
<path d="M66.8304 13.17C65.9104 13.29 63.8304 13.03 64.7004 7.32C64.9404 5.78 65.8604 2.39 64.8804 0.929999C62.8804 -2.01 58.2104 6.15 57.4504 7.4C55.5404 10.51 53.1704 13.82 49.0904 13.56C48.2562 13.441 47.458 13.1413 46.7515 12.6818C46.0451 12.2224 45.4475 11.6143 45.0004 10.9C44.2304 9.67 44.0704 8.19 42.3404 7.9C37.5804 7.1 38.2504 15.9 41.4604 17.28C45.6004 19.12 49.1104 19.88 49.6204 25.18C50.0704 29.92 47.9204 34.83 49.6204 39.46C51.4804 44.46 55.6204 42.71 58.2304 39.31C64.2304 31.47 61.8804 29.13 70.1704 32.41C78.4604 35.69 83.0904 33.25 77.1004 27.52C71.1104 21.79 68.6504 22.58 71.3604 17.87C74.0704 13.16 72.4104 12.51 66.8304 13.17Z" fill="#8066FA"/>
<path d="M11.8003 49.44C11.9103 48.08 10.6903 47.02 9.73026 46.03C7.36026 43.57 6.13026 39.82 7.28026 36.6C8.43026 33.38 12.2803 31.18 15.4803 32.42C18.3303 33.53 20.0603 36.88 23.0803 37.42C25.1303 37.75 27.1403 36.63 28.6503 35.2C30.1603 33.77 31.3203 32.03 32.8803 30.67C34.4403 29.31 36.5603 28.32 38.5503 28.87C40.8103 29.5 42.1803 31.98 42.1703 34.33C42.0053 36.6857 41.169 38.9448 39.7603 40.84C38.3557 42.7061 37.0986 44.6787 36.0003 46.74C35.4563 47.7824 35.1468 48.9311 35.0932 50.1057C35.0397 51.2803 35.2434 52.4524 35.6903 53.54C36.8003 55.79 39.2703 57.09 40.4803 59.29C41.0833 60.5104 41.3102 61.8824 41.1321 63.232C40.9541 64.5815 40.3792 65.8478 39.4803 66.87C38.5633 67.8755 37.4236 68.6525 36.1526 69.1387C34.8815 69.6249 33.5143 69.8069 32.1603 69.67C29.4459 69.3558 26.92 68.1246 25.0003 66.18C24.0003 65.26 23.2203 64.18 22.2003 63.37C21.7118 62.919 21.1382 62.57 20.5132 62.3434C19.8882 62.1167 19.2243 62.017 18.5603 62.05C16.9203 62.24 15.6703 63.53 14.3903 64.57C12.7064 66.0005 10.6621 66.9414 8.48026 67.29C7.39224 67.4544 6.28194 67.3908 5.21979 67.1033C4.15764 66.8158 3.16685 66.3107 2.31026 65.62C-3.14974 60.94 2.99026 54.39 7.83026 52.56C8.67799 52.2994 9.50116 51.9648 10.2903 51.56C10.6907 51.35 11.0361 51.0486 11.2984 50.6803C11.5607 50.312 11.7327 49.8871 11.8003 49.44Z" fill="#8066FA"/>
</svg>
