<svg width="96" height="96" viewBox="0 0 96 96" fill="none" xmlns="http://www.w3.org/2000/svg">
<path d="M60.7211 58.94C60.7211 58.94 68.5411 52.18 69.5211 54.13C71.0911 57.28 65.2411 70.33 64.2111 70.98C63.1811 71.63 55.3611 66.98 54.1011 64.24C53.3211 62.57 53.8911 58.64 57.3311 58.24C58.5076 58.0889 59.7008 58.3353 60.7211 58.94Z" fill="#8066FA"/>
<path d="M57.9405 18.84C56.9596 19.1368 56.0087 19.5252 55.1005 20C54.245 20.4583 53.4462 21.0155 52.7205 21.66C51.2773 22.8716 50.1716 24.4355 49.5105 26.2C49.2752 26.8296 49.2652 27.5213 49.4822 28.1575C49.6991 28.7937 50.1296 29.3352 50.7005 29.69C51.1811 30.0258 51.7542 30.204 52.3405 30.2C53.1309 30.2298 53.9186 30.09 54.6505 29.79C57.2238 28.6668 59.3394 26.7029 60.6505 24.22C60.8778 23.7817 61.0427 23.3139 61.1405 22.83V22.67V22.45V22C61.1658 21.7005 61.1658 21.3995 61.1405 21.1C61.0687 19.9245 60.7265 18.7815 60.1405 17.76C58.7813 15.6092 56.7113 14.0028 54.2905 13.22C53.0168 12.7571 51.6952 12.4384 50.3505 12.27C49.0188 12.1149 47.6717 12.152 46.3505 12.38C43.5443 12.9488 40.8269 13.8905 38.2705 15.18C35.8905 16.31 33.5405 17.63 31.1005 18.91C28.6171 20.3051 25.9656 21.3771 23.2105 22.1C21.2692 22.5755 19.2418 22.5755 17.3005 22.1C16.817 21.9717 16.3426 21.8113 15.8805 21.62C15.4218 21.4519 14.9771 21.2479 14.5505 21.01C13.6128 20.5399 12.7663 19.9067 12.0505 19.14C11.3047 18.3325 10.7623 17.3587 10.4684 16.2995C10.1745 15.2403 10.1375 14.1263 10.3605 13.05C10.7826 11.2229 11.5794 9.50326 12.7005 7.99999C14.0405 6.16999 14.3405 6.80999 14.1105 8.71999C13.9719 9.94503 13.9051 11.1771 13.9105 12.41C13.9103 13.0827 13.9841 13.7534 14.1305 14.41C14.2605 14.914 14.4844 15.389 14.7905 15.81C15.0936 16.2182 15.4784 16.5588 15.9205 16.81C16.1872 16.963 16.4646 17.0967 16.7505 17.21C17.0756 17.3461 17.4097 17.4597 17.7505 17.55C18.3331 17.7492 18.9447 17.8505 19.5605 17.85C20.1952 17.8933 20.8327 17.8631 21.4605 17.76C24.1505 17.3 27.1405 15.76 30.1505 14.12C33.2975 12.2888 36.5573 10.6589 39.9105 9.23999C41.7331 8.48262 43.635 7.9325 45.5805 7.59999C47.6302 7.29643 49.7166 7.34377 51.7505 7.73999C54.1473 8.16785 56.4579 8.98533 58.5905 10.16C59.6985 10.781 60.7347 11.5221 61.6805 12.37C62.6397 13.2526 63.474 14.2619 64.1605 15.37C65.5048 17.6794 66.1444 20.3316 66.0005 23C65.8901 24.4284 65.474 25.8164 64.7805 27.07C64.1799 28.1945 63.4408 29.2393 62.5805 30.18C60.7256 32.2757 58.3735 33.8713 55.7405 34.82C54.2591 35.3399 52.6734 35.4909 51.1205 35.26C50.2917 35.09 49.4951 34.7896 48.7605 34.37C48.0556 33.9604 47.4237 33.4366 46.8905 32.82C45.7726 31.6432 45.0703 30.1331 44.8905 28.52C44.8125 27.7392 44.8462 26.9513 44.9905 26.18C45.0371 25.8125 45.1209 25.4506 45.2405 25.1C45.3247 24.7575 45.4384 24.4229 45.5805 24.1C46.0964 22.8283 46.801 21.6417 47.6705 20.58C48.4887 19.5419 49.4212 18.5993 50.4505 17.77C51.0801 17.2465 51.7487 16.7718 52.4505 16.35C53.1605 15.97 53.8605 15.58 54.5805 15.27C56.0023 14.6091 57.4819 14.0802 59.0005 13.69C62.0276 12.8883 65.1692 12.6076 68.2905 12.86C70.7351 13.046 73.1166 13.7264 75.2905 14.86C77.5241 16.095 79.3566 17.9448 80.5705 20.19C81.7466 22.4275 82.2764 24.9483 82.1005 27.47C82.0358 28.6912 81.838 29.9017 81.5105 31.08C81.1939 32.2425 80.7721 33.3739 80.2505 34.46C78.591 37.7037 76.3545 40.6179 73.6505 43.06C71.1505 45.51 68.5305 47.62 66.3505 49.92C65.4372 50.8855 64.6107 51.9296 63.8805 53.04C62.9897 54.3937 62.2677 55.8511 61.7305 57.38C61.419 58.2392 60.9397 59.0278 60.3205 59.7C60.0899 60.0091 59.8358 60.2999 59.5605 60.57C59.1305 60.91 58.6505 60.57 58.1405 59.46C57.4648 57.7166 57.3701 55.8016 57.8705 54C58.3199 52.2206 59.0671 50.5301 60.0805 49C61.0384 47.575 62.1192 46.2366 63.3105 45C64.4605 43.79 65.6405 42.66 66.8005 41.58L70.2105 38.51C72.2801 36.7447 74.0145 34.6207 75.3305 32.24C76.4948 30.0795 76.999 27.6245 76.7805 25.18C76.5723 23.5424 75.8512 22.0127 74.7205 20.81C73.4914 19.5407 71.9276 18.6461 70.2105 18.23C66.155 17.279 61.9109 17.5221 57.9905 18.93L57.9405 18.84Z" fill="#8066FA"/>
<path d="M63.7407 66.94C65.0077 64.5632 66.065 62.0805 66.9007 59.52C67.044 59.063 67.1642 58.5991 67.2607 58.13L67.3307 57.79V57.7C67.3307 57.64 67.3307 57.58 67.3307 57.51C67.4365 57.2465 67.4609 56.9574 67.4007 56.68C67.2107 56.43 66.9107 56.58 66.6407 56.68L66.1907 56.88H66.1207L66.0007 57L65.7207 57.16L65.1607 57.51L62.8807 58.9L61.8107 59.55L61.2107 59.89L60.8007 60.07C60.6563 60.1128 60.5094 60.1462 60.3607 60.17C60.0553 60.2099 59.7461 60.2099 59.4407 60.17C59.1507 60.17 58.9807 60.09 58.7507 60.06L57.5407 59.79L54.6007 59.1C53.676 58.829 52.7289 58.6415 51.7707 58.54C51.2007 58.54 51.1507 58.2 51.6507 57.71C52.4986 57.0139 53.5541 56.6199 54.6507 56.59C54.9407 56.59 55.2207 56.59 55.5107 56.59L56.3307 56.7L57.9107 56.94C58.4207 57.03 58.9107 57.11 59.3607 57.16H59.6807L59.8007 57.09L60.0507 56.92L60.6307 56.5L61.8807 55.59C62.3107 55.29 62.7407 54.97 63.2007 54.69L64.8807 53.69C65.7522 53.1612 66.6952 52.7605 67.6807 52.5C68.0921 52.3857 68.524 52.365 68.9445 52.4394C69.365 52.5138 69.7635 52.6814 70.1107 52.93C70.7244 53.574 71.0803 54.4209 71.1107 55.31C71.2113 56.3703 71.1743 57.4392 71.0007 58.49C70.3447 61.3595 69.4137 64.1591 68.2207 66.85C67.8707 67.67 67.4907 68.49 67.0707 69.31L66.6507 70.09C66.5018 70.377 66.3348 70.6542 66.1507 70.92C65.8396 71.4364 65.4071 71.8689 64.8907 72.18L64.7107 72.28C64.2731 72.345 63.8283 72.345 63.3907 72.28L62.7307 72.1C62.5107 72.02 62.3007 71.92 62.0807 71.83C61.6867 71.6699 61.3027 71.4862 60.9307 71.28C60.6207 71.11 60.3307 70.93 60.0407 70.76C58.8707 70.04 57.7607 69.28 56.6807 68.46C54.8918 67.2384 53.2182 65.856 51.6807 64.33C51.3507 63.96 50.9907 63.63 50.6807 63.23C49.5907 61.7 49.6807 60.92 50.6307 60.11C50.8433 59.9099 51.0706 59.7261 51.3107 59.56C51.7259 59.3374 52.2063 59.2685 52.6673 59.3655C53.1284 59.4624 53.5403 59.719 53.8307 60.09C56.1033 62.503 58.6163 64.6776 61.3307 66.58C61.6307 66.79 61.9407 66.99 62.2407 67.18C62.5407 67.37 62.9107 67.57 63.1007 67.68C63.1007 67.68 63.1007 67.68 63.1007 67.75C63.1007 67.82 63.1007 67.75 63.1607 67.75C63.1607 67.75 63.1607 67.82 63.2207 67.65L63.5907 66.94H63.7407Z" fill="#8066FA"/>
<path d="M56.7603 76.88C56.5403 76.65 57.0303 76.57 57.9503 76.55C58.3776 76.5658 58.801 76.6364 59.2103 76.76C59.4187 76.8934 59.613 77.0475 59.7903 77.22C59.9623 77.8033 60.0927 78.3982 60.1803 79C60.2708 79.3982 60.2708 79.8117 60.1803 80.21C60.0203 80.99 59.8703 81.78 59.6703 82.55C59.6238 82.7287 59.5346 82.8934 59.4103 83.03C59.0092 83.5056 58.7494 84.0842 58.6603 84.7C58.6603 84.8 58.5803 84.89 58.6603 85.03C58.6524 85.7384 58.4482 86.4307 58.0703 87.03C57.6103 87.42 57.2403 87.85 56.8003 88.23C56.7303 88.23 56.8003 88.38 56.5603 88.37C56.1203 88.37 56.1103 88.51 56.0103 88.64C55.8676 88.8402 55.6834 89.0074 55.4703 89.13C55.2865 89.1893 55.093 89.2131 54.9003 89.2C54.6299 89.1288 54.3798 88.9952 54.1703 88.81C54.0503 88.63 53.7603 88.57 53.5403 88.45C53.4597 88.4181 53.3826 88.3779 53.3103 88.33C53.0756 87.7829 52.911 87.2083 52.8203 86.62L52.8903 86.34C52.8903 86.18 52.9603 85.96 53.0203 85.74C53.1019 85.4104 53.1653 85.0765 53.2103 84.74C53.2103 84.63 53.3403 84.57 53.4303 84.5C53.5203 84.43 53.6503 83.09 53.6703 83.04C53.8103 82.79 53.7603 82.48 54.1803 82.33C54.2703 82.33 54.2703 82.24 54.2803 82.18C54.4196 81.7054 54.6214 81.2514 54.8803 80.83C54.9667 80.5993 55.0336 80.3618 55.0803 80.12C55.0803 80.12 55.1603 80.04 55.1903 80.01C55.2203 79.98 55.3003 79.92 55.3103 79.86C55.5161 79.3054 55.6537 78.7278 55.7203 78.14C55.7203 78 56.2603 77.45 56.2303 77.29C56.2003 77.13 56.8503 77 56.7603 76.88Z" fill="#8066FA"/>
<path d="M73.4513 72.13C73.1813 72.2 73.2913 71.76 73.5813 71.02C73.7434 70.6825 73.9521 70.3694 74.2013 70.09C74.3977 69.9728 74.6054 69.8756 74.8213 69.8C74.9413 69.8 76.1513 70.05 76.5913 70.11C76.9749 70.1736 77.3421 70.313 77.6713 70.52C78.3313 70.89 79.0013 71.23 79.6713 71.59C79.818 71.6721 79.9392 71.7932 80.0213 71.94C80.3275 72.4122 80.7863 72.7652 81.3213 72.94C81.3707 72.9711 81.4279 72.9875 81.4863 72.9875C81.5447 72.9875 81.6019 72.9711 81.6513 72.94C81.9313 72.81 83.2313 73.49 83.3113 73.68C83.4223 73.9132 83.5458 74.1402 83.6813 74.36C83.8113 74.57 83.9313 74.81 84.0513 75.03C84.1713 75.25 84.1713 75.03 84.1213 75.29C83.9813 75.78 84.1213 75.77 84.2413 75.88C84.3747 76.0578 84.4762 76.2574 84.5413 76.47C84.5668 76.6826 84.5668 76.8974 84.5413 77.11C84.4782 77.4125 84.3595 77.7007 84.1913 77.96C84.0344 78.1756 83.9222 78.4204 83.8613 78.68C83.8613 78.77 83.7813 78.88 83.7513 78.95C83.0947 79.3086 82.3747 79.5362 81.6313 79.62L81.3113 79.5C81.1213 79.43 80.8713 79.35 80.6313 79.25C80.1513 79.04 79.6313 78.8 79.5713 78.77C79.5113 78.74 79.4213 78.58 79.3813 78.45C79.3413 78.32 77.9913 77.76 77.9613 77.71C77.7513 77.47 77.4313 77.4 77.4313 76.89C77.4313 76.79 77.3713 76.77 77.3213 76.74C76.9153 76.405 76.5585 76.0145 76.2613 75.58C76.0849 75.3917 75.8906 75.2209 75.6813 75.07C75.6813 75.07 75.6813 74.96 75.6213 74.91C75.5613 74.86 75.6213 74.77 75.5313 74.74C75.1076 74.3031 74.6458 73.9048 74.1513 73.55C74.0313 73.49 73.7413 72.76 73.5913 72.71C73.4413 72.66 73.5713 72.1 73.4513 72.13Z" fill="#8066FA"/>
</svg>
